<svg width="806" height="772" viewBox="0 0 806 772" fill="none" xmlns="http://www.w3.org/2000/svg">
<path d="M802.23 770.79C780.13 766.62 758.35 762.51 735.9 758.28C735.69 757.08 735.33 755.02 734.82 752.11C739.93 752.34 744.64 751.95 749.08 752.85C765.34 756.15 781.48 760.01 797.73 763.37C803.14 764.49 803.19 767.49 802.24 770.79H802.23Z" fill="white"/>
<path d="M68.09 751.13V757.91C46.19 762.31 24.59 766.65 2.73002 771.05C1.73002 767.19 2.43002 764.62 7.59002 763.56C24.99 759.96 42.29 755.9 59.65 752.1C62.21 751.54 64.88 751.49 68.09 751.13Z" fill="white"/>
<path d="M440.11 703.52C444.31 703.77 448.11 707.49 451.33 711.78C451.79 712.4 450.46 715.51 449.41 715.88C447.29 716.62 444.72 716.63 442.46 716.23C441.728 716.1 441.047 715.508 440.383 714.931C439.667 714.31 438.971 713.705 438.25 713.71C436.58 713.72 434.11 714.84 433.52 716.16C432.98 717.36 433.99 720.14 435.2 721.08C437.522 722.889 440.111 724.354 442.697 725.818C443.585 726.321 444.473 726.824 445.35 727.34C453.14 731.92 454.6 738.59 449.58 746.81C445.07 754.19 438.09 755.98 430.85 751.49C429.03 750.36 427.2 749.05 425.85 747.43C425.579 747.105 425.227 746.777 424.866 746.439C423.415 745.085 421.795 743.573 424.46 741.42C424.716 741.214 424.972 740.997 425.23 740.779C427.487 738.874 429.865 736.867 432.79 740.69C433.53 741.66 435.09 742.76 436.11 742.61C438.12 742.32 440.97 741.68 441.67 740.28C442.31 739 441.13 735.83 439.76 734.74C438.068 733.394 436.142 732.354 434.212 731.311C432.627 730.455 431.041 729.598 429.58 728.57C423.24 724.11 421.61 719.93 423.45 714.26C425.27 708.67 432.43 703.54 440.11 703.53V703.52Z" fill="white"/>
<path fill-rule="evenodd" clip-rule="evenodd" d="M325.8 753.6L325.803 753.59C326.682 753.59 327.486 753.577 328.237 753.565C329.786 753.54 331.116 753.519 332.44 753.62C335.27 753.83 336.4 752.52 336.29 749.83C336.09 744.83 338.53 743.01 343.38 743.7C344.807 743.901 346.272 743.847 347.693 743.796C348.323 743.773 348.945 743.75 349.55 743.75C351.337 750.957 355.233 753.717 361.24 752.03C358.139 741.167 355.043 730.298 351.942 719.412C350.553 714.535 349.162 709.655 347.77 704.77C347.35 704.77 346.958 704.787 346.587 704.803C345.854 704.835 345.201 704.863 344.57 704.75C339.99 703.93 338.06 705.95 337.5 710.43C337.083 713.763 336.164 717.042 335.25 720.3L335.249 720.302L335.249 720.304C335.132 720.72 335.015 721.135 334.9 721.55C332.795 729.128 330.632 736.69 328.409 744.465C327.549 747.47 326.681 750.508 325.803 753.59H325.79L325.8 753.6ZM343.705 722.33C343.864 722.318 344.023 722.306 344.18 722.291C344.813 724.631 345.442 726.968 346.092 729.385C346.542 731.056 347.002 732.765 347.48 734.54H339.63C340.378 732.016 341.091 729.595 341.792 727.215C342.271 725.587 342.745 723.979 343.22 722.37C343.38 722.355 343.543 722.343 343.705 722.33Z" fill="white"/>
<path d="M285.77 755.32H293.86V730.99C298.5 736.56 302.44 742.43 305.6 748.69C307.9 753.23 310.86 755 315.47 753.78V706.94H307.2V730.72C305.26 729.54 304.31 728.07 303.43 726.55C302.677 725.247 301.918 723.947 301.158 722.648L301.157 722.647L301.156 722.646L301.152 722.639L301.151 722.637L301.15 722.635L301.148 722.631C298.973 718.912 296.799 715.195 294.8 711.39C292.68 707.35 289.49 706.58 285.77 707.11V755.32Z" fill="white"/>
<path fill-rule="evenodd" clip-rule="evenodd" d="M192.783 764.279C193.668 764.175 194.604 764.066 195.61 763.99H195.6C193.71 760.542 191.952 757.339 190.264 754.264L190.26 754.258C188.787 751.574 187.367 748.987 185.96 746.42C194.21 740.23 195.92 729.75 190.29 722.28C187.39 718.44 183.64 716.43 178.63 717.23C175.242 717.774 171.834 718.23 168.346 718.697C166.831 718.9 165.301 719.105 163.75 719.32V766.5C167.08 766.26 170.04 766.05 173.45 765.81C173.297 762.993 173.149 760.255 172.992 757.342L172.977 757.062C172.83 754.349 172.675 751.479 172.5 748.25C173.461 748.955 174.35 749.53 175.151 750.047C176.69 751.043 177.904 751.828 178.68 752.92C179.681 754.327 180.44 755.902 181.201 757.481C181.884 758.899 182.569 760.319 183.43 761.62C184.31 762.94 186.05 764.24 187.56 764.46C189.183 764.7 190.862 764.503 192.783 764.279ZM172.9 740.96V726.78C173.907 726.881 174.961 726.899 176.009 726.917C178.476 726.959 180.91 727 182.63 728.13C184.04 729.06 184.31 734.62 182.92 736.22C181.526 737.826 179.218 738.636 176.607 739.553C175.415 739.971 174.16 740.411 172.9 740.96Z" fill="white"/>
<path fill-rule="evenodd" clip-rule="evenodd" d="M590.286 712.619C594.228 712.596 597.959 712.574 601.69 712.67C607.21 712.82 610.75 716.27 612.51 720.97C615.45 728.81 616.3 736.24 607.41 742.42C608.405 744.454 609.41 746.526 610.419 748.604C610.769 749.326 611.119 750.048 611.47 750.77C612.273 752.427 613.081 754.08 613.899 755.756L613.978 755.916C614.438 756.858 614.901 757.808 615.37 758.77C606.26 760.92 605.85 760.64 602.22 752.8C601.935 752.187 601.675 751.542 601.413 750.893C600.023 747.441 598.583 743.868 593.07 744.39V758.31H584.75V712.64C586.652 712.64 588.491 712.629 590.286 712.619ZM593.5 721.85V734.35C596.007 734.096 598.369 733.851 600.639 733.616L600.697 733.61C601.711 733.505 602.707 733.401 603.69 733.3C605.07 723.04 603.74 721.56 593.5 721.85Z" fill="white"/>
<path fill-rule="evenodd" clip-rule="evenodd" d="M242.443 730.049L242.443 730.062C242.447 731.054 242.45 732.047 242.45 733.04H242.36C242.36 733.825 242.395 734.616 242.43 735.407C242.505 737.125 242.581 738.843 242.3 740.5C240.93 748.5 251.63 757.78 257.32 757.56C265.78 757.23 272.96 749.92 272.96 740.75C272.96 734.78 272.71 728.8 272.29 722.84C271.7 714.51 264.6 707.33 257.4 707.48C250.16 707.63 242.56 716.05 242.45 724.08C242.43 726.066 242.437 728.057 242.443 730.049ZM251.398 734.74C251.303 733.525 251.209 732.317 251.11 731.12C251.11 730.257 251.122 729.404 251.133 728.559C251.159 726.684 251.183 724.847 251.08 723.02C250.89 719.81 252.1 717.92 255.44 717.67C258.75 717.42 262.33 717.36 262.62 721.71C263.08 728.66 263.1 735.66 263.05 742.63C263.03 745.64 261.04 746.95 258.01 746.78L257.75 746.766C255.087 746.625 252.458 746.485 252.1 742.94C251.824 740.199 251.61 737.453 251.398 734.741L251.398 734.74Z" fill="white"/>
<path d="M551.29 707.85H542.08C542.08 711.49 542.06 715.095 542.041 718.677C541.995 727.061 541.95 735.313 542.16 743.56C542.35 750.99 550.6 757.51 558.45 757.1C565.12 756.75 571.11 750.1 571.16 742.95C571.186 738.96 571.206 734.969 571.226 730.977V730.948C571.253 725.635 571.28 720.321 571.32 715.01C571.37 708.46 571.15 708.27 563.68 709.31C563.646 709.794 563.606 710.285 563.567 710.782L563.566 710.787C563.467 712.024 563.366 713.294 563.33 714.57C563.242 717.604 563.176 720.638 563.11 723.672L563.109 723.707L563.109 723.71C562.98 729.642 562.851 735.573 562.56 741.5C562.32 746.42 560.53 747.42 555.7 746.59C551.66 745.89 551.36 742.83 551.33 739.83C551.251 732.217 551.265 724.61 551.279 716.918C551.284 713.91 551.29 710.889 551.29 707.85Z" fill="white"/>
<path d="M203.659 749.012C202.779 749.476 201.856 749.962 200.87 750.41C201.886 751.289 202.832 752.124 203.739 752.924L203.742 752.927L203.743 752.928C205.547 754.52 207.19 755.97 208.9 757.34C215.7 762.79 223.53 761.28 228.98 753.54C234.64 745.49 233.41 739.4 225.25 734.38C221.44 732.04 217.62 729.68 214.07 726.98C211.16 724.78 212.31 722.72 215.09 721.27C219.1 719.18 221.57 721.31 223.39 724.7C223.887 724.546 224.347 724.413 224.782 724.287C225.588 724.054 226.305 723.846 227 723.58C232.13 721.58 232.45 720.27 228.81 716.25C221.42 708.08 211.03 709.69 204.96 719.94C202.03 724.89 202.33 730.24 206.67 733.96C210.15 736.94 214.25 739.32 218.37 741.36L218.432 741.391C221.256 742.788 223.738 744.015 222.09 747.48C220.45 750.92 216.56 751.28 214.44 749.22C210.52 745.398 207.493 746.992 203.659 749.012Z" fill="white"/>
<path d="M464.44 706.16H488.07V715.68H473.43V724.87C474.646 725.717 476.522 725.634 478.377 725.552C481.95 725.394 485.445 725.239 483.99 731.75C483.155 735.48 480.973 734.96 478.529 734.377C476.76 733.955 474.853 733.5 473.22 734.6L473.298 735.852L473.298 735.854C473.428 737.915 473.587 740.46 473.76 743.31H488.81C488.941 745.856 489.056 748.175 489.174 750.562L489.31 753.29H464.44V706.16Z" fill="white"/>
<path d="M521.506 738.827L521.48 738.82L521.49 738.84C521.563 739.133 521.635 739.424 521.706 739.714C521.8 740.097 521.893 740.479 521.99 740.86C521.292 741.34 520.591 741.948 519.89 742.557C518.339 743.902 516.791 745.245 515.29 745.19C511.09 745.04 508.76 742.04 508.99 737.32C509.13 734.455 509.076 731.578 509.022 728.7V728.699C508.98 726.424 508.937 724.149 508.99 721.88C509.09 717.5 512.92 714.85 516.83 716.58C517.572 716.905 518.156 717.62 518.733 718.326C519.347 719.077 519.952 719.818 520.73 720.07C523.318 720.916 526.173 721.009 528.921 721.099L528.96 721.1C529.26 721.11 530.15 718.85 529.88 717.89C528.16 711.66 518.86 705.3 512.99 706.09C506.17 707.01 499.19 715.06 499.18 722.18C499.17 727.82 499.19 733.47 499.39 739.11C499.62 745.48 505.44 752.95 511.97 755.12C517.99 757.12 522.84 754.7 526.32 749.94C527.57 748.227 528.319 746.142 529.069 744.057L529.069 744.056C529.404 743.123 529.74 742.189 530.12 741.29C527.249 740.462 524.378 739.645 521.506 738.827Z" fill="white"/>
<path d="M150.27 721.34V730.46C148.226 730.678 146.195 730.897 144.129 731.118C142.031 731.344 139.897 731.573 137.68 731.81V739.89C138.726 740.955 140.446 740.63 142.156 740.307C144.927 739.784 147.672 739.266 147.48 744.67C147.316 749.348 144.773 749.087 142.13 748.816C140.41 748.64 138.648 748.46 137.47 749.63V757.58H152.05C152.141 759.179 152.226 760.709 152.313 762.262C152.399 763.789 152.486 765.339 152.58 767C147.617 767.281 142.798 767.556 137.959 767.831L137.852 767.837C134.468 768.03 131.073 768.223 127.61 768.42V723.44L127.62 723.43C134.107 722.83 140.533 722.238 147.234 721.62L150.27 721.34Z" fill="white"/>
<path fill-rule="evenodd" clip-rule="evenodd" d="M93.1997 728.264C91.7922 728.495 90.3674 728.728 88.92 728.96V770.79H98.55C98.23 766.47 97.91 762.27 97.55 757.55C98.189 757.55 98.7771 757.562 99.3305 757.574C100.44 757.597 101.409 757.617 102.37 757.53C114.17 756.46 121.11 743.79 115.65 733.35C113.26 728.77 108.29 726 103.37 726.68C100.01 727.149 96.6539 727.699 93.1997 728.264ZM97.9916 738.312C97.9957 737.478 98 736.581 98 735.59C99.1266 735.924 100.41 735.749 101.671 735.576C104.293 735.217 106.816 734.872 107.62 739.16C108.91 746.05 107.21 747.73 98.28 749.21C98.2489 748.471 98.2131 747.738 98.1774 747.009C98.1098 745.626 98.0427 744.255 98.01 742.88C97.9765 741.445 97.9834 740.009 97.9916 738.312Z" fill="white"/>
<path d="M694.55 768.28C697.598 756.058 693.024 745.699 688.428 735.292C686.661 731.291 684.891 727.283 683.55 723.16C690.48 721.2 692.17 721.99 694.78 728.48C695.947 731.377 697.095 734.278 698.438 737.675C699.005 739.109 699.607 740.632 700.26 742.28C701.017 740.564 701.731 738.995 702.401 737.519L702.402 737.517C703.829 734.376 705.062 731.663 706.11 728.88C707.58 724.98 709.54 723.02 713.8 725.3C714.448 725.648 715.244 725.721 716.021 725.793C716.384 725.826 716.743 725.859 717.08 725.92C716.042 727.988 714.931 730.019 713.824 732.042L713.823 732.045L713.821 732.048C711.317 736.627 708.834 741.167 707.26 746C705.717 750.755 705.08 755.803 704.418 761.055L704.418 761.057L704.417 761.058L704.417 761.059C704.119 763.428 703.815 765.837 703.42 768.28H694.55Z" fill="white"/>
<path d="M674.64 730.63V721.01L674.65 721C669.324 720.28 664.221 719.586 659.117 718.892C655.289 718.372 651.461 717.851 647.54 717.32C647.32 721.01 647.14 724.06 646.95 727.31C649.258 727.583 651.287 727.826 653.328 728.071L653.341 728.073C654.214 728.177 655.089 728.282 655.99 728.39V764.83C657.348 764.895 658.656 764.956 659.937 765.017L659.949 765.017C661.824 765.105 663.642 765.191 665.47 765.28V729.89C666.817 729.999 668.089 730.101 669.321 730.2L669.346 730.202L669.369 730.204C671.174 730.35 672.895 730.488 674.64 730.63Z" fill="white"/>
<path d="M379.68 743.16H395.15V752.42H371.54V703.94H379.68V743.16Z" fill="white"/>
<path d="M636.04 760.5C636.05 745.54 636.05 730.57 636.05 715.2C634.765 714.938 633.599 714.698 632.491 714.471C630.686 714.101 629.038 713.763 627.29 713.41V761.34C628.468 761.423 629.572 761.499 630.633 761.573C632.399 761.697 634.046 761.811 635.72 761.93C635.755 761.781 635.8 761.632 635.844 761.482C635.942 761.157 636.04 760.828 636.04 760.5Z" fill="white"/>
<path d="M709.7 706.303C704.291 704.829 698.694 703.305 692.96 701.74C698.744 692.355 697.931 682.348 697.12 672.368C696.809 668.546 696.499 664.728 696.56 660.95C697.005 633.3 697.14 605.645 697.274 577.989V577.976C697.354 561.528 697.435 545.079 697.58 528.63C697.64 521.48 696.04 515.17 690.99 509.42C698.411 508.91 705.662 508.415 713.297 507.894L713.544 507.877C716.766 507.657 720.058 507.432 723.46 507.2C726.544 522.266 729.639 537.388 732.753 552.608C737.647 576.523 742.591 600.68 747.62 625.24C753.44 610.98 775.62 507.64 774.44 501.72C784.1 499.64 793.75 497.56 804 495.35C803.77 496.464 803.504 497.566 803.239 498.664L803.239 498.665L803.238 498.667L803.238 498.668L803.237 498.674C802.651 501.101 802.072 503.501 801.9 505.93C801.38 513.39 801.1 520.88 801.09 528.36L801.072 539.23V539.259C800.977 597.047 800.882 654.843 801.07 712.63C801.084 717.741 801.966 722.848 802.842 727.921L802.842 727.923L802.843 727.925L802.843 727.926L802.844 727.93C803.249 730.278 803.654 732.619 803.97 734.95C793.67 731.5 782.38 727.72 770.43 723.72C776.335 718.089 776.163 711.175 775.993 704.313C775.958 702.913 775.923 701.515 775.94 700.13C776.198 678.145 776.364 656.155 776.529 634.167L776.53 634.069C776.589 626.296 776.647 618.522 776.71 610.75C776.71 609.94 776.71 609.12 775.94 608.17C771.605 626.15 767.273 644.127 762.94 662.105C758.607 680.082 754.275 698.06 749.94 716.04L747.4 716.19C746.515 713.182 745.573 710.186 744.632 707.19L744.631 707.188C742.583 700.673 740.536 694.157 739.07 687.52C735.105 669.579 731.396 651.58 727.688 633.583L727.684 633.564L727.672 633.506L727.658 633.441C726.046 625.615 724.434 617.79 722.8 609.97C722.74 609.69 722.45 609.46 721.12 609.2C721.12 611.56 721.122 613.919 721.124 616.279C721.129 621 721.133 625.723 721.12 630.45C721.102 636.116 721.061 641.782 721.02 647.448C720.926 660.591 720.831 673.733 721.02 686.87C721.096 692.144 721.762 697.409 722.435 702.719L722.435 702.722L722.436 702.725L722.436 702.729C722.741 705.138 723.047 707.557 723.3 709.99V710.01C719.082 708.859 714.703 707.666 710.193 706.438L709.7 706.303Z" fill="white"/>
<path d="M54.9185 571.148L54.9189 571.137C55.3863 559.467 55.8485 547.929 56.18 536.39C56.21 535.29 55.07 533.32 54.2 533.15C48.1746 531.954 42.1091 530.941 35.7649 529.882C33.7283 529.542 31.662 529.197 29.56 528.84C29.4615 529.661 29.349 530.433 29.2412 531.173C29.0208 532.686 28.8202 534.063 28.8 535.44C28.7838 536.709 28.7674 537.978 28.751 539.247C28.565 553.628 28.3789 568.009 28.48 582.39C28.5 584.41 29.95 587.22 31.62 588.31C40.5043 594.086 49.531 599.645 58.5539 605.202C60.9972 606.707 63.4402 608.211 65.88 609.72C68.14 611.12 70.43 612.49 72.76 613.78C77.94 616.67 79.98 620.93 79.86 626.95C79.6331 637.647 79.5434 648.347 79.4536 659.049V659.05C79.3773 668.156 79.3009 677.263 79.14 686.37C79.06 691.16 78.8 696.11 77.48 700.66C75.17 708.65 69.65 714.02 61.6 716.61C56.7714 718.161 51.9481 719.729 47.1247 721.296L47.1122 721.3C38.6642 724.045 30.2163 726.79 21.74 729.45C13.42 732.06 3.00002 725.06 2.77002 716.27C2.41769 702.976 2.47152 689.667 2.52537 676.356C2.53418 674.177 2.54299 671.999 2.55002 669.82C2.55002 668.59 3.36002 666.74 4.33002 666.25C10.4235 663.173 16.5902 660.243 22.7245 657.328L22.7283 657.326L22.7492 657.316L22.7571 657.312L22.7659 657.308C24.7921 656.345 26.8147 655.384 28.83 654.42V697.65C30.8168 697.034 32.8134 696.424 34.8152 695.812L34.8163 695.812C40.9049 693.952 47.0421 692.077 53.1 689.97C54.25 689.57 55.36 687.2 55.38 685.72C55.58 670.24 55.68 654.75 55.4 639.28C55.37 637.41 53.23 634.95 51.41 633.83C43.9563 629.248 36.3903 624.842 28.8254 620.437L28.8244 620.437L28.8232 620.436C26.0369 618.814 23.2504 617.191 20.47 615.56C19.825 615.18 19.1925 614.78 18.56 614.38C17.9275 613.98 17.295 613.58 16.65 613.2C6.60002 607.3 2.04002 599.22 2.56002 586.9C3.29208 569.499 3.2042 552.066 3.11632 534.632C3.08415 528.251 3.05198 521.87 3.06002 515.49C3.06002 509.07 4.00002 503.35 10.16 499.53C14.39 496.9 18.46 496.07 23.39 497.09C35.6 499.61 47.88 501.8 60.17 503.9C69.27 505.45 78.27 514.03 78.81 523.5C79.5717 536.748 79.6921 550.045 79.8122 563.324C79.8246 564.689 79.837 566.055 79.85 567.42C79.86 568.65 78.22 570.56 76.93 571.02C71.3919 572.999 65.7884 574.792 60.3489 576.534C58.4221 577.15 56.5154 577.761 54.64 578.37L54.63 578.38C54.7257 575.963 54.8222 573.553 54.9185 571.148Z" fill="white"/>
<path d="M402.949 674.316H402.964C404.723 674.308 406.448 674.3 408.13 674.3L408.15 674.31C407.873 671.715 407.558 669.309 407.26 667.03L407.259 667.029L407.259 667.025L407.259 667.023L407.258 667.022L407.258 667.018L407.258 667.016C406.651 662.388 406.113 658.281 406.1 654.17C406.028 629.498 406.081 604.83 406.135 580.161V580.151L406.135 580.086C406.162 567.344 406.19 554.603 406.2 541.86C406.2 540.774 406.184 539.685 406.168 538.597C406.057 531.042 405.947 523.519 411.2 517.05C411.298 516.931 411.23 516.676 411.166 516.438C411.139 516.334 411.112 516.235 411.1 516.15H379.78C379.625 516.295 379.473 516.44 379.32 516.585L379.315 516.59C379.164 516.734 379.013 516.877 378.86 517.02C385.214 521.624 384.98 527.815 384.747 533.987C384.706 535.082 384.665 536.176 384.66 537.26C384.624 546.543 384.556 555.829 384.487 565.115V565.143C384.442 571.323 384.396 577.502 384.36 583.68C384.34 587.367 384.347 591.053 384.353 594.74C384.357 596.583 384.36 598.427 384.36 600.27C381.86 594.83 380.03 589.37 378.42 583.84C372.28 562.78 366.17 541.71 360.18 520.61C359.22 517.26 358.13 515.87 354.07 516.28C349.34 516.75 344.546 516.629 339.753 516.509C337.717 516.457 335.681 516.406 333.65 516.4H328.98C328.786 516.574 328.595 516.75 328.403 516.927L328.4 516.93C328.208 517.108 328.015 517.285 327.82 517.46C335.994 521.892 335.797 528.857 335.6 535.808V535.815C335.571 536.829 335.543 537.844 335.54 538.85C335.508 553.5 335.47 568.149 335.431 582.798V582.832C335.374 604.777 335.316 626.722 335.28 648.67C335.279 649.563 335.286 650.458 335.294 651.352C335.36 659.416 335.426 667.454 329.35 674.35H359.05C356.661 656.411 357.182 638.673 357.701 621.003C357.978 611.606 358.253 602.228 358.09 592.85C359.14 593.99 359.68 595.16 360.05 596.39C361.971 602.847 363.888 609.304 365.805 615.762C371.262 634.149 376.72 652.536 382.27 670.89C382.67 672.24 384.43 674.1 385.62 674.15C391.503 674.37 397.392 674.342 402.949 674.316Z" fill="white"/>
<path d="M467.21 649.47V619.6C464.904 619.403 462.292 619.174 459.492 618.929L459.485 618.928L457.22 618.73V595.09H489.95C489.975 595.611 490.008 596.108 490.039 596.59L490.039 596.592L490.04 596.593V596.595C490.096 597.46 490.15 598.275 490.15 599.09C490.15 604.444 490.154 609.8 490.159 615.155V615.159C490.171 629.446 490.183 643.736 490.11 658.02C490.07 666.1 482.01 673.91 473.97 673.77C463.32 673.58 452.67 673.3 442.02 672.92C432.59 672.59 422.34 661.98 422.32 652.49C422.25 612.87 422.23 573.26 422.23 533.64C422.23 525.11 431.43 515.9 440.42 515.73C450.74 515.54 461.06 515.57 471.38 515.82C481.47 516.07 490.16 525.25 490.17 535.26C490.183 542.439 490.179 549.618 490.174 556.788V556.844C490.172 560.422 490.17 563.998 490.17 567.57C486.249 567.925 482.48 568.268 478.739 568.608C475 568.948 471.289 569.285 467.48 569.63V539.22H445.44C445.44 541.232 445.441 543.221 445.442 545.194V545.26C445.444 549.137 445.447 552.954 445.44 556.77C445.425 563.928 445.417 571.086 445.41 578.245C445.388 599.72 445.365 621.198 445.14 642.67C445.09 647.43 446.75 649.41 451.2 649.46C454.695 649.494 458.186 649.486 461.889 649.478H461.914C463.617 649.474 465.365 649.47 467.18 649.47H467.21Z" fill="white"/>
<path d="M125.977 700.841L126.053 700.826C130.82 699.893 135.605 698.956 140.53 697.99L140.54 698C140.515 697.746 140.516 697.475 140.518 697.207C140.521 696.622 140.524 696.047 140.25 695.67C135.805 689.549 135.844 682.614 135.883 675.561C135.886 675.078 135.889 674.594 135.89 674.11C135.959 641.907 135.934 609.71 135.91 577.509V577.5C135.902 567.437 135.895 557.374 135.89 547.31V538.14C142.372 536.538 147.024 539.523 151.775 542.572C153.518 543.69 155.275 544.817 157.14 545.73V514.69C133.3 512.05 109.92 509.46 86.28 506.84C89.7733 514.337 89.6505 522.197 89.5229 530.366C89.4554 534.684 89.3866 539.088 89.85 543.57C90.7625 542.759 91.5763 541.915 92.3462 541.117C93.9389 539.467 95.3446 538.01 97.05 537.43C101.28 535.99 105.93 535.39 110.39 535.46C111.1 535.48 112.29 540.83 112.31 543.72C112.48 566.016 112.595 588.314 112.71 610.613V610.619C112.825 632.915 112.94 655.213 113.11 677.51C113.116 678.346 113.128 679.182 113.141 680.018C113.263 688.476 113.385 696.871 107.46 704.47C113.773 703.231 119.86 702.039 125.977 700.841Z" fill="white"/>
<path fill-rule="evenodd" clip-rule="evenodd" d="M665.72 624.43C677.28 620.71 681.04 615.43 681.02 603.76C681 587.29 681.01 570.81 681.04 554.34C681.047 551.706 681.119 549.068 681.192 546.43C681.335 541.245 681.478 536.06 681.12 530.91C680.33 519.68 670.08 512.31 658.97 514.01C653.4 514.86 647.75 515.57 642.12 515.69C633.591 515.869 625.062 515.833 616.834 515.798C613.573 515.784 610.358 515.77 607.21 515.77C607.706 517.535 608.323 519.281 608.937 521.015C610.252 524.734 611.549 528.4 611.59 532.09C612.03 570.86 612.21 609.63 611.84 648.4C611.811 651.46 612.001 654.554 612.192 657.658C612.791 667.415 613.396 677.263 607.22 686.42C614.749 687.86 621.96 689.242 629.462 690.68L629.522 690.691L629.558 690.698C633.225 691.401 636.962 692.117 640.84 692.86C635.29 684.4 634.84 675.92 635.1 667.22C635.317 659.764 635.356 652.303 635.395 644.84V644.831C635.41 641.978 635.425 639.123 635.45 636.27C635.47 633.998 635.463 631.725 635.457 629.395V629.339C635.453 628.17 635.45 626.986 635.45 625.78H643.77C647.214 641.127 650.644 656.433 654.122 671.95L654.586 674.02C656.136 680.936 657.695 687.895 659.27 694.92C668.19 696.89 677.97 699.05 688.22 701.32C680.62 685.007 676.596 668.028 672.578 651.079C670.464 642.158 668.351 633.244 665.72 624.44V624.43ZM652.21 601.37C648.533 601.426 644.861 601.414 641.082 601.401H641.081C639.434 601.396 637.767 601.39 636.07 601.39V540.71H656.87C656.878 540.742 656.889 540.783 656.904 540.831L656.919 540.879L656.942 540.949C657.054 541.301 657.242 541.893 657.25 542.49C657.332 547.927 657.392 553.366 657.452 558.805V558.806C657.583 570.67 657.713 582.535 658.07 594.39C658.21 599.07 656.77 601.31 652.21 601.38V601.37Z" fill="white"/>
<path fill-rule="evenodd" clip-rule="evenodd" d="M226.997 634.045C231.235 650.168 235.476 666.297 243.6 681.11L243.59 681.12C243.679 681.273 243.663 681.487 243.639 681.795C243.626 681.971 243.61 682.177 243.61 682.42C239.672 682.937 235.732 683.457 231.854 683.968L231.688 683.99C226.781 684.637 221.975 685.27 217.4 685.87C211.78 665.21 206.31 645.13 200.77 624.81C199.888 624.937 198.991 625.064 198.075 625.195L198.073 625.195C196.457 625.426 194.781 625.665 193.02 625.92C192.987 625.989 192.934 626.071 192.876 626.163C192.724 626.402 192.53 626.706 192.53 627.01C192.53 631.041 192.519 635.071 192.509 639.102C192.474 652.04 192.44 664.978 192.76 677.91C192.821 680.457 193.879 682.977 194.971 685.579C195.487 686.807 196.01 688.054 196.44 689.33C191.386 690.178 186.343 691.021 181.177 691.885C175.559 692.825 169.794 693.789 163.71 694.81C169.855 686.096 169.692 677.004 169.531 668.019C169.505 666.549 169.479 665.082 169.48 663.62C169.489 656.389 169.501 649.158 169.513 641.927C169.565 609.391 169.618 576.86 169.43 544.33C169.417 542.128 169.549 539.898 169.681 537.663C170.154 529.665 170.631 521.602 164.48 514.56C170.415 514.859 176.279 515.143 182.093 515.425C195.919 516.094 209.459 516.75 222.99 517.56C231.55 518.07 238.17 525.96 238.26 535.55C238.324 542.467 238.293 549.387 238.262 556.308V556.309C238.207 568.859 238.151 581.41 238.66 593.94C239.12 605.19 235.74 612.95 225.26 617.48C224.26 617.91 223.35 620.53 223.7 621.77C224.841 625.847 225.919 629.946 226.997 634.045ZM198.33 601.048C202.653 600.393 206.894 599.75 211.15 599.23C214.36 598.84 215 597.23 214.94 594.21C214.725 582.48 214.636 570.75 214.548 559.019C214.517 554.94 214.486 550.86 214.45 546.78C214.443 545.618 214.445 544.457 214.448 543.227V543.221C214.449 542.579 214.45 541.919 214.45 541.23C206.92 540.56 200.04 539.95 192.78 539.31V601.88C194.649 601.606 196.495 601.326 198.327 601.049L198.33 601.048Z" fill="white"/>
<path fill-rule="evenodd" clip-rule="evenodd" d="M301.88 515.99C291.57 515.97 281.26 515.88 270.96 515.49C262.51 515.17 252.46 524.35 252.46 532.84V598.72H252.2C252.2 604.803 252.202 610.886 252.203 616.97V616.971C252.207 632.181 252.211 647.393 252.19 662.6C252.18 672.01 260.64 680.37 270.09 679.71C280.03 679.01 289.96 677.96 299.87 676.88C311.35 675.64 319.35 666.56 319.42 655.05C319.66 614.621 319.92 574.191 320.18 533.762V533.76C320.24 524.28 311.61 516 301.89 515.98L301.88 515.99ZM281.255 654.569L281.254 654.569L281.252 654.569C279.552 654.717 277.823 654.868 276.05 655.01V539.71H297.37V551.27C297.37 560.177 297.364 569.084 297.358 577.991C297.342 601.373 297.326 624.754 297.42 648.13C297.43 651.98 296.12 653.55 292.37 653.74H292.36C288.705 653.92 285.055 654.238 281.255 654.569Z" fill="white"/>
<path d="M603.099 686.688C603.1 686.689 603.1 686.689 603.1 686.69H603.11C603.107 686.689 603.103 686.689 603.099 686.688Z" fill="white"/>
<path fill-rule="evenodd" clip-rule="evenodd" d="M592.726 629.939C594.887 648.888 597.06 667.944 603.099 686.688C598.938 686 594.914 685.334 590.918 684.673C585.219 683.729 579.576 682.795 573.67 681.82C577.625 674.383 576.246 667 574.84 659.467C574.159 655.817 573.471 652.133 573.38 648.39C565.07 647.58 557.2 646.81 548.56 645.96C548.539 649.906 547.698 653.769 546.858 657.626C545.319 664.696 543.784 671.748 547.31 679.26C541.973 678.713 536.766 678.182 531.609 677.655C526.581 677.142 521.6 676.633 516.59 676.12C522.431 662.372 524.994 647.668 527.554 632.985C528.115 629.769 528.675 626.554 529.27 623.35C534.431 595.488 538.875 567.482 543.319 539.482C543.825 536.288 544.332 533.094 544.84 529.9C545.266 527.181 544.942 524.344 544.604 521.384C544.442 519.968 544.277 518.523 544.19 517.05H575.97C577.276 525.575 578.558 534.113 579.84 542.657C582.792 562.315 585.748 582.004 589.01 601.64C590.567 611.012 591.645 620.462 592.726 629.939ZM552.861 621.51C553.277 618.55 553.679 615.627 554.076 612.731C554.96 606.298 555.825 599.997 556.79 593.71C558.17 584.71 559.77 575.74 562.22 566.71L562.348 567.627C564.875 585.721 567.405 603.834 570.08 623.01C564.091 622.49 558.711 622.02 552.861 621.51Z" fill="white"/>
<path d="M391.568 67.7404L391.57 67.7419C394.304 69.7513 397.014 71.7431 399.71 73.68H399.75C400.158 73.1133 400.556 72.4746 400.969 71.812C401.932 70.2649 402.978 68.5872 404.42 67.39C408.6 63.93 407.09 61.23 403.84 58.65C401.144 56.5145 398.403 54.4327 395.663 52.3513L395.662 52.3505L395.66 52.3491C391.511 49.1973 387.362 46.0461 383.37 42.71C375.72 36.32 366.97 33.48 357.17 33.25C355.737 33.2196 354.309 33.0892 352.88 32.9587C351.489 32.8316 350.097 32.7045 348.7 32.67C346.818 32.6235 344.935 32.572 343.052 32.5205L343.039 32.5201C335.62 32.3173 328.194 32.1143 320.78 32.21C315.84 32.27 312.92 35.39 312.02 40.24C311.68 42.03 311.41 43.86 311.34 45.68C311.2 49.38 309.9 51.2 305.69 51.46C296.75 52 292.59 58.83 295.53 67.29C295.91 68.39 296.35 69.49 296.94 70.48C298.95 73.86 298.73 76.44 295.07 78.77C290.46 81.7 288.12 86.91 290.71 91.3C295.05 98.66 294.58 105.49 291.98 112.88C291.55 114.09 291.59 115.52 291.65 116.84C291.679 117.445 291.709 118.051 291.738 118.656L291.738 118.662C292.047 125.035 292.356 131.407 292.84 137.77C292.983 139.692 293.26 141.604 293.537 143.514L293.537 143.518V143.519C293.858 145.73 294.177 147.94 294.29 150.16C295.52 174.1 323.3 182.41 339.09 174.05C347.67 169.51 353.8 163.28 356.06 154.65C354.445 156 352.842 157.47 351.213 158.965L351.212 158.966L351.211 158.967L351.21 158.968C347.434 162.432 343.519 166.022 339 168.53C332.25 172.27 324.32 172.94 316.88 169.31C329.8 167.32 339.75 161.6 341.58 154.7C328.03 162.99 320.96 164.21 315.26 159.24C333.86 152.03 336.67 150.26 338.2 144.76C324.39 152.42 313.43 152.71 306.19 145.02C314.77 146.38 322.21 145.27 328.92 138.53C320.49 136.88 313.08 135.13 308.72 127.68C310.469 127.959 312.188 128.253 313.888 128.543L313.892 128.544L313.901 128.545L313.907 128.546L313.91 128.547C317.557 129.17 321.117 129.778 324.7 130.2C338.39 131.82 351.92 133.59 365.1 138.38C370.577 140.369 376.739 140.595 382.819 140.818C384.443 140.878 386.062 140.937 387.66 141.03C389.233 141.119 390.858 140.364 392.481 139.61C393.219 139.266 393.958 138.923 394.69 138.66C394.72 138.09 394.75 137.51 394.78 136.93C393.404 136.174 392.028 135.418 390.654 134.663L390.644 134.658C387.587 132.979 384.534 131.302 381.48 129.62C381.255 129.815 381.03 130.012 380.805 130.21C380.58 130.408 380.355 130.605 380.13 130.8C380.84 132.793 381.545 134.792 382.243 136.775L382.255 136.807C382.467 137.41 382.679 138.011 382.89 138.61C377.47 137.26 375.8 135.19 378.07 130.89C380.33 126.61 378.01 125.13 375.08 123.62C373.797 122.96 372.518 122.29 371.238 121.62L371.236 121.619L371.232 121.617C366.467 119.123 361.697 116.625 356.74 114.6C351.15 112.32 345.27 110.5 339.35 109.29C333.955 108.189 328.515 107.307 323.074 106.426C318.34 105.659 313.604 104.892 308.9 103.98C307.782 103.762 306.822 102.726 305.861 101.689C305.413 101.205 304.965 100.721 304.5 100.32C305.057 100.065 305.621 99.7306 306.184 99.3962C307.409 98.6687 308.635 97.9409 309.8 98.03C313.682 98.3252 317.556 98.7888 321.428 99.2522C327.132 99.9348 332.832 100.617 338.55 100.76C349.86 101.05 359.46 105.39 368.86 110.89C373.109 113.378 377.394 115.817 381.551 118.184L381.555 118.186C383.628 119.366 385.67 120.529 387.66 121.67C388.474 120.144 389.28 118.628 390.119 117.052C391.28 114.869 392.502 112.571 393.89 109.97C391.323 108.253 388.727 106.556 386.123 104.854C380.177 100.968 374.195 97.0587 368.45 92.83C361.11 87.41 353.05 84.6 344.17 83.27C336.396 82.109 328.666 80.6301 320.937 79.1512C319.678 78.9103 318.419 78.6695 317.16 78.43C315.807 78.1675 314.499 77.6965 313.121 77.2001C312.452 76.9591 311.766 76.7121 311.05 76.48C311.645 75.1825 312.166 74.0533 312.674 72.9521C313.157 71.9062 313.628 70.8855 314.14 69.77C317.937 70.3309 321.722 70.8812 325.497 71.4301L325.509 71.4319L325.512 71.4322C335.462 72.8789 345.344 74.3157 355.2 75.91C358.36 76.42 361.75 77.38 364.37 79.14C372.765 84.7808 381.028 90.6298 388.891 96.1963C391.651 98.1494 394.361 100.068 397.01 101.93C398.304 99.6097 399.688 97.1403 401.178 94.483L401.188 94.4639L401.197 94.4484L401.298 94.2693C402.211 92.6396 403.164 90.9395 404.16 89.16C403.637 88.7126 403.089 88.2273 402.517 87.7217L402.516 87.7203C401.184 86.5427 399.729 85.2549 398.19 84.08C395.851 82.2929 393.469 80.5575 391.087 78.8226C386.606 75.558 382.125 72.2943 377.94 68.69C370.85 62.58 362.93 59.32 353.72 58.04C345.93 56.9641 338.199 55.4782 330.321 53.9642L330.32 53.964L330.318 53.9635C326.921 53.3107 323.497 52.6526 320.03 52.02L321.03 45.52C324.493 45.9324 327.913 46.3323 331.301 46.7285C340.072 47.7542 348.626 48.7547 357.16 49.88C358.087 50.0025 359.043 50.0996 360.008 50.1975C363.611 50.5632 367.331 50.941 370.1 52.7C377.52 57.4145 384.62 62.6337 391.568 67.7404Z" fill="#D5781B"/>
<path d="M317.07 188.38L317.09 188.379C325.597 203.883 334.224 219.616 342.85 235.35C342.637 235.467 342.424 235.585 342.211 235.704L341.951 235.85C341.651 236.017 341.35 236.185 341.05 236.35C337.21 229.56 333.373 222.77 329.535 215.98L329.397 215.735C325.605 209.027 321.814 202.318 318.02 195.61L316.42 196.47L339.27 240.54C339.62 240.515 339.972 240.493 340.324 240.47C340.677 240.448 341.03 240.425 341.38 240.4C342.288 239.116 343.191 237.827 344.094 236.538L344.101 236.528C346.199 233.534 348.298 230.537 350.47 227.59C354.58 222.02 356.14 217.26 350.69 210.81C347.725 207.304 345.707 203.009 343.681 198.696L343.68 198.695L343.68 198.694C342.488 196.156 341.293 193.613 339.9 191.22C338.92 189.56 336.55 187.76 334.76 187.69C330.877 187.535 326.975 187.782 322.688 188.054C320.898 188.167 319.041 188.285 317.09 188.379L317.08 188.36L317.07 188.38Z" fill="#D5781B"/>
<path d="M377.88 24.075C376.616 24.0425 375.352 24.01 374.09 24.01L374.08 24.02C374.027 24.341 373.981 24.67 373.936 24.9927L373.92 25.11C375.968 26.4282 378.005 27.7664 380.041 29.1047C384.755 32.2027 389.47 35.3007 394.33 38.15C399.85 41.38 408.88 39.23 412.95 34.3C415.54 31.16 415.96 24.73 413.71 21.63C411.508 18.6085 409.157 19.4716 406.712 20.3688C405.937 20.6534 405.152 20.9414 404.36 21.11C398.41 22.38 392.36 23.3 386.31 23.93C383.526 24.2201 380.704 24.1476 377.88 24.075Z" fill="#D5781B"/>
<path d="M409.516 95.7136L409.517 95.7147C412.542 97.7578 415.568 99.8014 418.27 102.2C419.6 103.38 420.41 106.63 419.74 108.21C419.01 109.93 415.64 112.28 414.54 111.8C410.28 109.94 405.53 107.77 402.86 104.27C401.82 102.9 402.525 100.202 403.232 97.4985C403.551 96.276 403.871 95.0524 404.03 93.95L406.04 93.34H406.05C407.192 94.1442 408.353 94.9284 409.514 95.7126L409.516 95.7136Z" fill="#D5781B"/>
<path d="M415.41 85.8443C415.611 85.911 415.788 85.9697 415.92 86.03V86.02C420.08 85.89 422.52 81.48 420.25 78.45C417.99 75.44 415.25 72.72 412.35 70.3C411.24 69.37 407.93 68.99 407.66 69.48C406.54 71.54 404.96 74.72 405.8 76.19C407.282 78.7674 409.525 80.922 411.755 83.0628L411.756 83.0635C412.415 83.6966 413.073 84.3288 413.71 84.97C414.175 85.4347 414.877 85.6674 415.41 85.8443Z" fill="#D5781B"/>
<path d="M396.24 114.15C397.454 114.911 398.638 115.63 399.792 116.331C402.84 118.182 405.676 119.904 408.28 121.92C409.11 122.56 409.11 125.66 408.31 126.69C407.3 127.99 404.68 129.34 403.41 128.88C399.92 127.61 396.49 125.74 393.64 123.38C392.62 122.53 393.02 119.53 393.37 117.62C393.51 116.873 394.18 116.224 394.981 115.447C395.381 115.059 395.814 114.639 396.23 114.16L396.24 114.15Z" fill="#D5781B"/>
<path d="M352.703 188.363C351.485 186.683 350.266 185.003 349.09 183.3L347.74 183.78C348.561 192.173 352.68 199.304 356.887 206.588C357.703 207.999 358.521 209.417 359.32 210.85C359.422 210.595 359.526 210.336 359.632 210.074C360.88 206.983 362.303 203.456 361.16 201.28C358.783 196.747 355.743 192.555 352.703 188.363Z" fill="#D5781B"/>
<path fill-rule="evenodd" clip-rule="evenodd" d="M271.33 342.85C246.3 360.09 219.58 362.18 191.51 355.55V355.57C193.967 359.136 196.386 362.687 198.79 366.218L198.792 366.22L198.793 366.221L198.794 366.223C204.15 374.086 209.437 381.849 214.93 389.46C229.69 409.92 248.65 424.9 273.39 431.24C279.23 432.74 285.95 432.52 291.93 431.36C297.49 430.29 302.91 427.43 307.85 424.46C332.25 409.77 352.7 390.39 369.72 367.84C385.71 346.65 397.82 323.14 404.82 297.19C406.635 290.457 409.126 283.911 411.617 277.364C412.763 274.352 413.909 271.341 414.99 268.31C415.98 272.31 416.45 276.11 415.91 279.75C407.83 333.93 384.73 380.41 344.39 417.89C332.23 429.19 318.51 437.69 301.72 440.28C300.423 440.478 299.159 440.909 297.892 441.341C297.303 441.541 296.714 441.742 296.12 441.92C296.165 442.075 296.207 442.23 296.25 442.384L296.281 442.499C296.313 442.616 296.346 442.733 296.38 442.85C297.306 443.055 298.235 443.261 299.164 443.466C300.09 443.671 301.016 443.875 301.94 444.08C301.933 444.154 301.926 444.229 301.919 444.304C301.912 444.371 301.906 444.438 301.901 444.506L301.883 444.711C301.866 444.907 301.849 445.103 301.83 445.3C300.134 445.3 298.416 445.393 296.698 445.485H296.68C292.855 445.691 289.028 445.897 285.43 445.09C278.066 443.442 270.835 441.165 263.604 438.89L263.6 438.889L263.518 438.864C260.821 438.014 258.124 437.165 255.42 436.35C253.369 435.731 251.342 435.045 249.312 434.358L249.31 434.357L249.287 434.35C248.376 434.041 247.464 433.733 246.55 433.43C246.72 435.3 247.22 436.21 247.98 436.76C251.166 439.086 254.321 441.464 257.476 443.843L257.483 443.848L257.486 443.85C265.626 449.987 273.768 456.125 282.45 461.37C289.04 465.35 297.32 467.99 305 468.46C332.37 470.15 341.59 458.07 354.81 435.62C353.134 436.387 351.468 437.182 349.803 437.977L349.799 437.98C345.992 439.798 342.186 441.616 338.25 443.09C334.271 444.588 330.167 445.748 326.061 446.909L326.047 446.913C324.235 447.426 322.422 447.938 320.62 448.48C320.54 448.236 320.458 447.995 320.376 447.754L320.316 447.578L320.252 447.387C320.225 447.306 320.198 447.226 320.171 447.145L320.13 447.02C320.63 446.79 321.137 446.573 321.643 446.355C322.613 445.937 323.583 445.52 324.51 445.02C326.59 443.906 328.713 442.85 330.836 441.795C335.726 439.364 340.618 436.931 344.99 433.78C369.88 415.85 387.35 391.75 400.62 364.44C413.667 337.583 420.131 308.796 426.595 280.008C428.43 271.837 430.265 263.667 432.25 255.54C434.73 245.4 437.47 235.28 440.91 225.44C442.644 220.479 444.511 215.561 446.378 210.645L446.379 210.642C452.004 195.825 457.625 181.017 459.6 165.07C459.94 162.319 460.156 159.555 460.372 156.776C460.473 155.474 460.575 154.168 460.69 152.86C460.942 152.91 461.149 152.941 461.322 152.966C461.636 153.013 461.839 153.043 462 153.14C462.27 153.3 462.56 153.58 462.65 153.87C466.43 166.14 468.2 178.23 463.47 190.94C458.1 205.36 452.93 220 449.41 234.95C447.538 242.907 445.725 250.879 443.912 258.85L443.91 258.861C436.435 291.728 428.962 324.585 417.39 356.38C408.26 381.47 397.83 405.92 381.57 427.36C379.59 429.973 377.583 432.564 375.578 435.154L375.575 435.157C367.717 445.306 359.869 455.44 353.64 466.8C351.38 470.92 347.08 474.51 342.89 476.9C322.48 488.55 301.61 487.62 281.51 476.47C260.5 464.82 239.41 453.58 216 447.46C210.072 445.911 204.124 444.431 198.177 442.95L198.171 442.949C189.109 440.694 180.048 438.439 171.06 435.94C124.06 422.87 90.08 394.72 71.64 348.97C69.7083 344.179 68.0697 339.269 66.3862 334.225L66.3854 334.223C65.6201 331.93 64.8456 329.61 64.03 327.26C61.33 354.68 71.21 377.55 87.76 397.71C111.41 426.53 142.72 443.49 178.74 450.56C211.26 456.95 242.07 467.11 270.76 483.55C282.64 490.36 295.05 495.24 308.72 496.26C333.22 498.09 360.41 490.18 370.95 460.98C372.8 455.86 376.28 450.84 380.24 447.08C392.52 435.41 401.74 421.69 408.92 406.57C420.28 382.64 429.41 357.78 436.12 332.19C441.555 311.466 446.616 290.644 451.678 269.821L451.68 269.813C455.175 255.432 458.671 241.05 462.29 226.7C463.98 220 465.83 212.87 469.56 207.23C477.59 195.1 481.14 182.27 479.41 167.97C478.77 162.74 479.79 158.45 482.99 154.04C486.07 149.81 488.34 144.81 490.06 139.83C493.967 128.49 497.446 117.008 500.924 105.531L500.924 105.53L500.925 105.526L501.2 104.62C504.75 92.87 502.82 82.03 495.89 71.83C493.72 68.65 491.89 64.71 491.47 60.95C490.12 48.73 484.24 40.43 472.52 36.55C468.74 35.3 466.5 32.99 465.02 29.26C461.8 21.15 455.43 16.64 446.94 15.35C442.36 14.66 437.67 14.41 433.03 14.41C430.1 14.4 428.26 13.79 426.64 11.03C421.05 1.52001 412.59 -1.89999 401.96 0.990009C399.533 1.65241 397.175 2.56027 394.817 3.46795C392.512 4.3553 390.208 5.24254 387.84 5.90001C385.25 6.62001 382 7.17001 379.67 6.23001C370.17 2.41001 361.68 3.63001 354.09 10.28C348.42 15.25 341.97 16.06 334.94 14.93C334.184 14.8064 333.429 14.6796 332.674 14.5527C330.803 14.2382 328.931 13.9236 327.05 13.66C310.27 11.28 297.25 19.43 292.13 35.29C291.69 36.65 290.33 38.07 289.02 38.74C277.3 44.74 271.9 53.96 273.47 67.19C274.15 72.94 274.11 78.21 271.99 83.74C270.795 86.837 270.943 90.5826 271.081 94.06L271.1 94.54C271.315 100.167 271.628 105.793 271.942 111.421L271.942 111.423V111.436C272.488 121.245 273.035 131.056 273.06 140.87C273.09 153.62 275.14 165.66 280.54 177.17C282.852 182.104 285.142 187.049 287.432 191.995L287.433 191.996L287.453 192.038L287.455 192.043L287.476 192.089C290.342 198.28 293.21 204.471 296.12 210.64C299.461 217.731 302.83 224.807 306.199 231.881C309.98 239.822 313.761 247.761 317.5 255.72C320.846 262.836 320.568 263.007 314.521 266.727C314.28 266.876 314.03 267.03 313.77 267.19C308.586 270.389 303.943 274.517 299.353 278.598L298.62 279.25C297.752 280.023 297.407 281.38 297.061 282.739C296.902 283.368 296.742 283.998 296.53 284.57C309.71 272.56 325.18 267.31 341.13 262.82C345.15 261.69 349.44 259.79 352.43 256.99C374.05 236.73 386.79 211.51 392.19 182.6C393.368 176.278 393.88 169.83 394.397 163.313L394.397 163.31C394.635 160.313 394.874 157.301 395.18 154.28L396.026 154.057C397.907 153.563 400.025 153.005 402.61 152.32C403.211 163.058 401.393 173.28 399.582 183.455C398.713 188.337 397.847 193.208 397.25 198.12L398.342 196.103C399.135 194.64 399.925 193.18 400.72 191.72C390.97 217.5 380.02 242.6 359.22 262.06C359.34 262.147 359.461 262.233 359.582 262.32L359.765 262.45L359.814 262.485C359.898 262.545 359.983 262.605 360.067 262.665C360.148 262.723 360.229 262.782 360.31 262.84C365.055 261.665 369.802 260.492 374.55 259.32C379.297 258.148 384.045 256.975 388.79 255.8L389.57 258.23C386.596 259.329 383.646 260.561 380.696 261.793L380.67 261.804C374.045 264.57 367.418 267.338 360.52 268.61C345.57 271.36 331.54 276.29 318.24 283.06C311.32 286.59 304.53 291.74 299.69 297.76C280.48 321.65 278.31 348.2 290.17 376.03C292.079 380.518 294.572 384.757 297.065 388.995L297.066 388.997C298.217 390.953 299.367 392.91 300.46 394.89C294.68 391.46 289.29 387.4 284.56 382.67C273.82 371.94 272.14 357.82 271.33 342.85ZM469.651 150.041C470.071 150.195 470.493 150.35 470.915 150.505C471.337 150.66 471.76 150.815 472.18 150.97C472.969 149.458 473.819 147.967 474.67 146.475C476.558 143.165 478.447 139.854 479.66 136.31C483.59 124.85 487.16 113.23 490.16 101.5C491.49 96.31 491.73 90.62 491.2 85.28C490.89 82.21 488.65 78.65 486.19 76.66C483.17 74.22 482.13 71.75 482.31 68.17C483.18 51.1 477.74 46.51 464.34 43.94C461.88 43.47 458.6 41.01 457.88 38.77C454.47 28.11 446.92 24.91 436.71 25.38C434.122 25.4977 431.524 25.4668 428.983 25.4367C427.852 25.4233 426.733 25.41 425.63 25.41C422.64 12.62 414.41 7.85001 402.78 12.43C393.11 16.23 383.54 16.77 373.55 14.5C367.66 13.16 362.99 14.82 360.51 20.18C358.44 24.67 355.18 25.22 351.3 25.06C342.82 24.7 334.35 24.19 325.89 23.6C313.64 22.75 305.62 28.03 302.45 39.7C301.5 43.19 299.54 44.9 296.43 46.27C286.27 50.76 282.8 59.49 286.28 70.05C286.92 71.99 286.45 74.92 285.36 76.69C282.47 81.39 279.63 86.52 281.51 91.67C284.16 98.96 284.4 106.03 283.16 113.41C283.121 113.658 283.143 113.924 283.163 114.185C283.169 114.26 283.175 114.336 283.18 114.41C283.355 117.364 283.559 120.318 283.763 123.272L283.763 123.273C284.224 129.95 284.685 136.627 284.81 143.31C285.02 154.59 288.32 164.88 293.25 174.84C307.44 203.48 320.19 232.75 332.6 262.91C367.93 235.59 382.17 197.76 385.43 154.18C394.698 154.576 400.949 148.976 407.248 143.332C409.383 141.419 411.524 139.501 413.79 137.81C414.663 137.155 415.14 136.003 415.624 134.83C415.939 134.069 416.257 133.299 416.69 132.65C417.19 131.899 417.676 131.128 418.163 130.355L418.164 130.353C419.681 127.944 421.209 125.517 423.23 123.64C430.89 116.52 432.37 109.11 427.28 99.95C426.834 99.1434 426.358 98.3468 425.863 97.5176C425.658 97.175 425.451 96.8268 425.24 96.47C425.288 96.4076 425.336 96.346 425.382 96.2852C425.48 96.1563 425.575 96.031 425.667 95.909L425.672 95.9024C425.966 95.5128 426.233 95.1574 426.52 94.83C434.22 86.09 434.5 79.94 427.14 71.04C422.98 66.0164 418.663 61.1169 414.379 56.2557C412.464 54.0822 410.555 51.9159 408.67 49.75C409.987 48.8717 411.438 48.0548 412.91 47.2258C416.298 45.3176 419.801 43.3449 422.06 40.41C426.45 34.71 431.79 34.03 437.78 33.94C446.4 33.81 450.27 36.71 451.27 45.24C452.132 52.5961 452.496 60.0151 452.861 67.4277L452.861 67.4293C452.978 69.8209 453.096 72.212 453.23 74.6C453.704 83.0139 454.125 91.4324 454.547 99.8492L454.548 99.8775C454.741 103.716 454.933 107.553 455.13 111.39C456.07 110.26 456.23 109.13 456.33 108C456.726 103.713 457.13 99.4251 457.535 95.1373L457.535 95.1303L457.536 95.1282C458.724 82.5277 459.913 69.9244 460.89 57.31C461.24 52.82 463.01 51.95 466.91 53C472.76 54.58 474.96 57.1 474.44 63.46C473.533 74.727 472.493 85.9852 471.453 97.2434C470.933 102.872 470.413 108.5 469.91 114.13C469.856 114.763 469.925 115.405 469.993 116.05C470.027 116.363 470.06 116.676 470.08 116.99L470.84 116.97C472.485 111.029 474.128 105.091 475.771 99.1524C477.413 93.2158 479.055 87.2791 480.7 81.34C481.33 81.45 481.96 81.56 482.58 81.66C482.58 82.4253 482.623 83.1997 482.666 83.9738C482.759 85.6476 482.852 87.3206 482.51 88.9C480.283 99.2973 477.981 109.68 475.679 120.064L475.677 120.076C474.134 127.035 472.591 133.995 471.07 140.96C470.618 143.041 470.33 145.156 470.042 147.274C469.916 148.196 469.791 149.119 469.651 150.041ZM295.911 359.777L295.861 360.166C295.821 360.484 295.781 360.802 295.74 361.12V361.13C283.44 323.01 316.31 289.66 350.3 282.86C350.192 282.945 350.084 283.03 349.975 283.115L349.801 283.251L349.45 283.526C349.139 283.768 348.829 284.011 348.518 284.253L348.494 284.273C347.081 285.374 345.668 286.474 344.28 287.61C341.362 289.995 338.381 292.318 335.401 294.642C328.556 299.979 321.709 305.318 315.6 311.4C303.21 323.74 298.63 340.01 296.28 356.93C296.151 357.875 296.031 358.825 295.911 359.777ZM329.06 399.74L336.246 393.545C342.529 388.128 348.567 382.921 354.5 377.81C349.475 382.144 344.367 386.547 339.097 391.088L339.095 391.09C335.818 393.914 332.48 396.792 329.06 399.74Z" fill="#D5781B"/>
<path fill-rule="evenodd" clip-rule="evenodd" d="M628.54 201.32C628.18 205.52 627.92 209.36 632.83 211.25H632.82C625.31 216.73 624.35 216.28 617.96 209.64C616.02 207.62 611.85 206.38 609.04 206.84C602.021 207.988 595.141 210.104 588.321 212.201L588.29 212.21C572.3 217.11 557.49 224.5 546.16 236.98C526.16 259.01 513.22 282.93 527.77 313.67C534.02 326.86 543.82 334.94 557.47 338.88C568.54 342.069 579.279 339.662 590.077 337.242C590.412 337.167 590.746 337.092 591.081 337.017C591.36 336.955 591.64 336.892 591.92 336.83C622.54 330.01 646.09 312.37 666.13 289.15C669.31 285.47 669.7 282.7 665.09 279.63C662.27 277.75 660.06 274.78 658.03 271.97C656.499 269.85 655.223 267.549 653.945 265.244C653.378 264.221 652.81 263.198 652.22 262.19C697.933 291.802 748.835 305.797 799.723 319.788C800.889 320.109 802.054 320.429 803.22 320.75C803.337 320.531 803.454 320.313 803.572 320.096C803.656 319.94 803.741 319.785 803.825 319.63C803.932 319.433 804.039 319.237 804.145 319.04C804.241 318.864 804.336 318.687 804.43 318.51C803.854 318.097 803.296 317.643 802.739 317.19C801.555 316.226 800.373 315.264 799.02 314.7C792.56 312.015 786.025 309.501 779.493 306.988C778.119 306.459 776.744 305.93 775.37 305.4C772.19 304.17 770.65 302.22 772.16 299.65C769.405 299.002 766.662 298.38 763.933 297.761L763.924 297.759C757.523 296.308 751.194 294.874 744.95 293.15C741.665 292.238 738.466 291.013 735.265 289.788C732.572 288.757 729.877 287.725 727.13 286.88C723.019 285.611 718.865 284.466 714.712 283.322C702.368 279.92 690.026 276.519 678.81 269.86C671.408 265.465 663.9 261.252 656.399 257.043L656.37 257.026L656.363 257.022L655.86 256.74C654.167 255.786 652.402 254.963 650.635 254.139L650.634 254.138C649.864 253.779 649.094 253.42 648.33 253.05C653.95 252.93 659.2 253.69 664.41 254.64C669.633 255.596 674.846 256.727 680.058 257.858C691.473 260.335 702.887 262.812 714.4 263.45C733.2 264.5 752.31 262.99 771.07 260.74C778.441 259.856 785.591 257.012 792.719 254.177C795.426 253.101 798.129 252.026 800.84 251.06C803.56 250.09 806.19 248.42 805.17 244.63C764.78 257.95 724.21 264.32 682.41 253.72C684.11 252.97 685.85 252.9 687.58 252.98C690.656 253.121 693.73 253.298 696.804 253.475L696.826 253.476C702.876 253.823 708.924 254.17 714.98 254.25C729.215 254.443 743.133 251.991 757.058 249.537L757.06 249.537C761.153 248.816 765.247 248.094 769.35 247.44C780.12 245.73 789.84 241.82 799.07 236.44C801.07 235.27 803.36 232.76 803.55 230.69C804.27 222.75 804.37 214.74 804.37 206.76C804.35 184.3 804.2 161.83 803.92 139.36C803.91 138.07 802.53 136.09 801.33 135.63C796.68 133.85 791.91 132.32 787.08 131.13C764.03 125.43 741.81 128.83 720.23 137.79C697.94 147.04 679.22 160.86 665.12 180.76C655.438 194.421 650.28 209.949 645.107 225.524L645.096 225.557C644.721 226.685 644.346 227.813 643.97 228.94C643.076 231.628 642.062 234.279 641.046 236.93C640.574 238.165 640.101 239.401 639.64 240.64L638.09 240.37C637.898 238.963 637.609 237.542 637.319 236.121C636.676 232.96 636.032 229.798 636.46 226.79C637.67 218.34 639.14 209.66 642.31 201.81C642.73 200.768 643.15 199.721 643.57 198.672C648.032 187.537 652.613 176.103 659.65 166.69C686.41 130.88 724.01 116.82 767.64 116.93C774.528 116.95 781.416 117.449 788.304 117.947C791.716 118.194 795.128 118.441 798.54 118.63C798.728 118.641 798.915 118.654 799.1 118.666C801.198 118.812 803.08 118.943 803.08 115.36C803.073 105.621 803.246 95.8827 803.42 86.144C803.495 81.9327 803.57 77.7213 803.63 73.51C803.643 72.7146 803.597 71.9192 803.543 71.0074L803.543 71.0054C803.515 70.5192 803.484 70 803.46 69.43C802.951 69.609 802.495 69.7437 802.084 69.8651C801.323 70.0896 800.716 70.269 800.21 70.6C797.449 72.4135 794.683 74.2202 791.917 76.0269L791.897 76.0394L791.895 76.0412C782.557 82.1399 773.219 88.2395 764.06 94.6C758.86 98.22 753.79 100.42 747.19 100.69C719.47 101.83 693.66 109.04 671.84 127.17C648.43 146.62 631.23 169.72 628.54 201.32ZM541.373 270.708C541.136 270.812 540.82 270.951 540.39 271.16C546.61 255.67 557.61 245.72 570.86 238.28C585.7 229.95 601.43 223.72 618.65 222.4C621.57 222.17 624.67 222.43 627.48 223.21C628.589 223.52 629.503 224.536 630.415 225.55C630.828 226.009 631.24 226.468 631.67 226.86C631.233 227.228 630.81 227.667 630.387 228.106C629.454 229.075 628.52 230.044 627.44 230.25C624.74 230.766 622 231.08 619.262 231.395C616.056 231.762 612.853 232.13 609.72 232.82C583.49 238.62 560.49 250.41 542.05 270.33C541.927 270.465 541.748 270.543 541.373 270.708ZM662.301 285.559C662.424 285.728 662.547 285.896 662.67 286.065L663.025 286.551C663.156 286.731 663.288 286.911 663.42 287.09H663.41C660.811 289.343 658.231 291.621 655.651 293.9L655.612 293.935C649.926 298.957 644.239 303.981 638.34 308.74C621.95 321.96 603.18 330.39 582.39 333.33C575.431 334.315 568.166 333.537 561.021 332.772L561.017 332.772C559.898 332.652 558.782 332.532 557.67 332.42C555.48 332.2 553.379 331.08 551.277 329.959C550.318 329.448 549.358 328.936 548.39 328.51C548.45 328.295 548.508 328.078 548.565 327.86C548.593 327.753 548.621 327.647 548.65 327.541C548.679 327.43 548.709 327.32 548.74 327.21C548.91 327.191 549.082 327.156 549.255 327.122C549.621 327.048 549.987 326.975 550.32 327.05C576.96 333.16 600.66 324.92 622.94 311.43C631.015 306.546 638.7 301.019 646.384 295.493L646.389 295.489L646.391 295.488C650.047 292.858 653.703 290.229 657.4 287.67C658.381 286.991 659.432 286.416 660.483 285.841L660.484 285.84C660.965 285.577 661.446 285.313 661.92 285.04L662.107 285.295L662.301 285.559Z" fill="#D5781B"/>
<path fill-rule="evenodd" clip-rule="evenodd" d="M166.11 208.64C169.395 219.095 168.243 229.72 165.601 240.555C164.538 237.455 163.513 234.39 162.499 231.356C160.258 224.653 158.066 218.099 155.62 211.64C141.58 174.61 115.9 149.36 78.72 135.58C53.12 126.1 27.75 125.88 2.04001 135.92C2.04001 136.224 2.04234 136.517 2.04462 136.803C2.04901 137.356 2.05319 137.883 2.04001 138.41C1.92011 143.893 1.79334 149.377 1.66656 154.86L1.6665 154.862L1.66647 154.864C1.28577 171.33 0.905049 187.797 0.710015 204.27C0.670015 207.39 1.25001 211.49 3.22001 213.49C10.2 220.57 17.32 227.77 25.43 233.42C50.34 250.76 78.76 254.67 108.31 253.21C111.564 253.045 114.804 252.733 118.046 252.421C119.516 252.28 120.987 252.138 122.46 252.01L122.52 253.49C100.78 263 78.5 259.68 56.65 253.97C34.26 248.12 14.85 236.6 0.390015 217.72C1.10001 224.63 5.66001 231.72 14.3 237.88C33.69 251.71 54.86 261 79.01 263.2C96.86 264.83 114.16 263.27 131.36 258.5C137.75 256.726 144.232 255.283 151.168 253.738C154.479 253.001 157.893 252.24 161.45 251.41C159.312 252.686 157.295 253.854 155.372 254.968C151.448 257.241 147.912 259.288 144.53 261.57C131.59 270.31 117.74 277.16 102.59 280.86C93.3442 283.118 83.9939 284.944 74.6432 286.77C70.1183 287.654 65.5933 288.537 61.08 289.47C60.9285 289.501 60.7656 289.532 60.5965 289.565C59.5157 289.771 58.1808 290.026 57.93 290.64C56.3483 294.477 53.089 295.128 49.8553 295.774C49.2455 295.896 48.6366 296.017 48.04 296.16C44.6657 296.97 41.2718 297.678 37.8788 298.386L37.8664 298.389C36.4069 298.693 34.9475 298.997 33.49 299.31C33.635 299.5 33.7825 299.693 33.93 299.885C34.0775 300.078 34.225 300.27 34.37 300.46C34.0981 300.814 33.8492 301.224 33.5999 301.635C33.0607 302.523 32.5195 303.415 31.74 303.75C22.88 307.56 13.96 311.22 4.99001 314.77L4.87193 314.817C2.5238 315.745 0.579311 316.513 2.93001 320.89C13.3971 317.645 23.9244 314.556 34.4566 311.465C75.7652 299.34 117.149 287.194 155.27 265.6C152.316 268.792 149.358 271.984 146.284 275.301C144.581 277.139 142.843 279.014 141.05 280.95C141.777 281.713 142.452 282.49 143.111 283.249C144.492 284.84 145.806 286.353 147.39 287.49C148.562 288.33 149.734 289.17 150.906 290.011L150.922 290.023L150.938 290.035L150.954 290.046L150.96 290.05C160.306 296.757 169.662 303.471 179.34 309.68C202.68 324.67 227.91 332.55 256.08 328.51C244.88 333.31 233.25 336.64 221.3 333.43C210.1 330.42 198.86 326.75 188.51 321.62C176.88 315.86 165.77 308.73 155.32 301.01C151.442 298.142 148.41 294.134 145.376 290.124L145.37 290.116C143.931 288.215 142.491 286.311 140.96 284.53C140.42 283.901 139.753 283.379 139.085 282.856C138.776 282.615 138.467 282.373 138.17 282.12L138.012 282.254C137.672 282.542 137.326 282.835 136.98 283.12C137.198 283.546 137.411 283.976 137.624 284.406C138.096 285.36 138.569 286.317 139.1 287.24C149.17 304.84 162.77 318.38 182.35 325.17C194.92 329.53 207.48 333.91 219.93 338.59C235.88 344.58 260.53 338.59 270.19 324.63C274.717 318.093 277.988 310.655 281.243 303.251C282.216 301.04 283.187 298.83 284.19 296.65C285.25 294.36 285.54 291.35 285.16 288.83C282.84 273.48 278.12 258.88 268.2 246.72C249.08 223.3 223.72 210.31 194.53 204.07C191.28 203.38 189.78 204.58 188.41 207.45C187.745 208.848 186.53 209.978 185.314 211.109L185.309 211.113C184.77 211.614 184.231 212.116 183.74 212.64C183.294 212 182.78 211.38 182.266 210.759L182.263 210.756C181.155 209.418 180.047 208.079 179.61 206.55C179.213 205.166 178.82 203.78 178.427 202.396L178.426 202.392L178.417 202.359C173.998 186.789 169.591 171.259 160.35 157.54C137.11 123.06 104.61 104.54 63.37 101.26C53.65 100.49 45.34 97.97 37.51 91.47C30.4318 85.5952 22.6487 80.5672 14.8684 75.5411C11.7229 73.509 8.57784 71.4773 5.48001 69.39C4.73527 68.8887 3.87258 68.5669 3.15634 68.2998L3.15489 68.2992C2.8715 68.1935 2.61108 68.0964 2.39001 68V110.71C4.0961 111.028 5.45771 111.286 6.97535 111.573L6.99224 111.576L6.99893 111.577C7.85834 111.74 8.7685 111.912 9.82001 112.11C8.04381 112.768 6.84349 113.216 5.80799 113.602C5.3802 113.762 4.98053 113.911 4.58001 114.06C4.59995 114.309 4.61989 114.556 4.63983 114.803L4.64001 114.805C4.66001 115.053 4.68001 115.3 4.70001 115.55C8.30373 115.751 11.9087 115.945 15.5141 116.139L15.516 116.139L15.517 116.139C21.9753 116.487 28.4347 116.835 34.89 117.22C37.9783 117.406 41.0781 117.524 44.1778 117.641H44.1788C51.5569 117.92 58.9357 118.199 66.16 119.41C92.37 123.8 115.47 134.61 134.46 153.88C149.84 169.49 159.66 188.08 166.11 208.64ZM267.24 272.77C263.73 261.32 256.47 254.14 248.38 247.68C234.55 236.64 218.67 229.47 201.92 224.22C196.58 222.54 190.91 221.7 185.32 221.14C179.97 220.6 175.93 223.44 172.07 228.61C173.212 228.944 174.276 229.317 175.289 229.673C177.308 230.381 179.129 231.02 180.98 231.14C204.37 232.67 225.31 241.11 244.44 254.08C249.695 257.638 254.516 261.831 259.624 266.274L259.624 266.275C262.068 268.4 264.577 270.583 267.23 272.78L267.24 272.77ZM12.99 94.81L14.0014 93.5309C18.5209 96.4506 23.0405 99.3703 28.12 102.66C20.69 106.57 16.21 103.84 12.99 94.81Z" fill="#D5781B"/>
<path d="M464.699 273.562L464.69 273.56H464.7L464.699 273.562Z" fill="#D5781B"/>
<path fill-rule="evenodd" clip-rule="evenodd" d="M464.298 274.388C464.438 274.112 464.577 273.838 464.699 273.562C522.332 288.907 539.748 353.552 502.9 394.79C509.5 392.42 515.85 389.16 520.05 383.5C524.36 377.69 528.37 371.33 530.9 364.61C532.597 360.095 533.315 355.216 534.051 350.215C534.378 347.994 534.709 345.748 535.13 343.5C559.71 362.89 587.21 362.59 616.9 353.64C611.082 360.835 605.916 368.402 600.808 375.884C589.402 392.592 578.284 408.878 560.83 419.66C551.74 425.28 541.68 429.52 531.65 433.3C528.611 434.452 524.583 433.467 520.921 432.571L520.918 432.571C520.352 432.432 519.794 432.296 519.25 432.17C514.58 431.08 509.67 429.91 505.63 427.5C504.26 426.682 502.886 425.866 501.512 425.049C490.893 418.74 480.227 412.403 470.54 404.85C463.298 399.205 456.759 392.653 450.218 386.098C447.339 383.214 444.46 380.329 441.52 377.52C438.49 374.63 438.8 371.88 440.1 367.82C444.33 354.56 447.76 341.03 451.16 327.52C453.939 316.486 456.573 305.419 459.205 294.354C460.646 288.3 462.086 282.247 463.55 276.2C463.699 275.568 464.001 274.974 464.298 274.388ZM507.276 359.86L509.06 359.82C509.271 358.81 509.532 357.801 509.793 356.794L509.796 356.782C510.351 354.641 510.905 352.503 510.98 350.35C512.02 321.53 493.57 301.66 470.88 289.96C469.79 289.395 468.429 289.346 466.939 289.292C466.215 289.266 465.459 289.238 464.69 289.15C467.798 292.476 470.913 295.677 473.981 298.83C480.894 305.933 487.572 312.796 493.41 320.31C501.273 330.445 503.839 343.037 506.376 355.487L506.378 355.498L506.384 355.529C506.679 356.976 506.973 358.421 507.276 359.86Z" fill="#D5781B"/>
<path d="M609.325 414.649C606.54 415.059 603.755 415.469 600.975 415.899L600.26 413.13C601.183 412.809 602.103 412.476 603.023 412.143C605.055 411.408 607.088 410.673 609.16 410.06C614.659 408.426 620.184 406.866 625.709 405.306L625.711 405.306C637.296 402.035 648.882 398.764 660.23 394.81C679.72 388.01 694.15 374.42 705.8 357.56C712.251 348.227 716.25 337.832 720.251 327.433C721.372 324.518 722.494 321.602 723.67 318.71C726 312.99 725.05 311.62 718.88 309.06C700.53 301.44 683.04 304.07 668.24 316.44C667.213 317.298 666.184 318.156 665.156 319.013C642.352 338.028 619.421 357.148 605.93 384.81C602.032 392.796 597.815 400.625 593.514 408.609L593.512 408.613L593.511 408.615C591.491 412.365 589.452 416.15 587.42 420C587.974 420.041 588.511 420.096 589.036 420.15C590.189 420.269 591.284 420.382 592.37 420.32C594.789 420.189 597.218 420.115 599.649 420.04C605.558 419.86 611.472 419.679 617.24 418.68C645.59 413.77 673.36 407.25 694.95 386C710.24 370.94 720.97 353.33 726.13 332.43C726.414 331.295 726.466 330.104 726.508 329.144C726.525 328.751 726.541 328.396 726.57 328.1C724.995 331.31 723.47 334.577 721.938 337.859C718.57 345.076 715.169 352.365 711.12 359.28C697.11 383.19 677.52 400.26 649.71 406.45C646.778 407.105 643.868 407.867 640.959 408.628L640.956 408.629C636.942 409.679 632.929 410.729 628.86 411.5C622.384 412.727 615.854 413.688 609.325 414.649Z" fill="#D5781B"/>
<path d="M175.37 416.34C191.62 420.34 208.08 421.05 225.53 419.8L225.56 419.78C225.182 419.348 224.887 418.979 224.636 418.663C224.188 418.102 223.877 417.713 223.48 417.45C215.958 412.395 211.702 404.904 207.382 397.303L206.782 396.247C206.678 396.065 206.574 395.882 206.47 395.7C204.788 392.757 203.157 389.759 201.523 386.756C196.199 376.973 190.847 367.139 183.64 358.99C169.93 343.49 154.16 329.69 138.48 316.06C124.48 303.9 107.86 301.62 90.25 307.4C87.0847 308.439 83.9794 309.654 80.8745 310.868L80.8397 310.881C79.3851 311.45 77.9306 312.019 76.47 312.57C77.67 334.04 115.37 382.29 135.02 386.74C133.009 384.882 130.981 383.038 128.951 381.192C112.49 366.227 95.9594 351.2 88.25 328.08C88.7246 328.833 89.1309 329.489 89.4952 330.076L89.496 330.078C90.2291 331.26 90.7922 332.168 91.4 333.05C93.5371 336.141 95.5957 339.274 97.6525 342.404L97.6553 342.408C104.289 352.503 110.904 362.569 120.07 371.11C135.38 385.38 151.86 396.59 172.04 402.22C174.259 402.839 176.48 403.456 178.701 404.072L178.708 404.075C186.571 406.259 194.438 408.444 202.28 410.72C203.953 411.207 205.55 411.943 207.15 412.679L207.151 412.68L207.153 412.681C207.885 413.018 208.619 413.356 209.36 413.67C209.27 414.19 209.17 414.72 209.07 415.25C208.263 415.25 207.448 415.294 206.633 415.338L206.631 415.338C204.873 415.433 203.117 415.528 201.45 415.18C182.59 411.27 163.76 407.21 144.94 403.1C143.567 402.802 142.261 402.134 140.97 401.474C140.616 401.293 140.263 401.112 139.91 400.94C116.81 389.65 100.02 371.97 87.91 349.57C86.73 347.38 85.55 345.17 84.44 342.94C83.7049 341.463 83.0176 339.953 82.3316 338.447L82.3294 338.442L82.3286 338.441L82.3262 338.436L82.3194 338.42C82.0668 337.866 81.8145 337.312 81.56 336.76C87.5 357.5 98.34 375.42 114.76 389.09C125.79 398.28 137.75 406.78 152.15 410.52C159.263 412.372 166.402 414.131 173.543 415.89L175.37 416.34Z" fill="#D5781B"/>
<path d="M453.26 436.09C464.86 441.24 475.9 446.1 488.46 445.68C475.7 442.11 465.07 434.64 455.31 426.4C448.501 420.651 442.46 413.981 436.428 407.32L436.418 407.31C434.427 405.111 432.437 402.913 430.42 400.75C429.63 399.9 429.62 397.85 429.94 396.52C430.329 394.916 430.952 393.367 431.819 391.213C432.244 390.156 432.727 388.954 433.27 387.53C433.753 388.289 434.157 388.981 434.527 389.614C435.229 390.816 435.807 391.805 436.56 392.63C448.53 405.61 460.82 418.16 475.94 427.71C487.05 434.72 498.46 439.82 511.91 439C512.956 438.933 514.015 439.102 515.076 439.271C515.587 439.353 516.1 439.435 516.61 439.49C516.636 439.791 516.662 440.089 516.688 440.387L516.76 441.22C514.49 441.604 512.219 441.985 509.712 442.405L509.659 442.414C507.543 442.769 505.257 443.153 502.66 443.59C503.601 443.931 504.415 444.298 505.142 444.627C506.484 445.233 507.527 445.704 508.52 445.62C510.304 445.466 512.094 445.329 513.885 445.192C520.687 444.672 527.508 444.15 534.11 442.67C540.208 441.304 546.14 439.196 552.276 437.015C555.035 436.034 557.835 435.039 560.71 434.09C560.455 434.523 560.253 434.917 560.07 435.271C559.731 435.931 559.463 436.453 559.06 436.83C545.8 449.37 531.84 460.99 513.8 465.94C487.25 473.23 466.69 461.46 454.02 438.32C453.837 437.986 453.722 437.61 453.561 437.082C453.476 436.802 453.378 436.48 453.25 436.1L453.26 436.09Z" fill="#D5781B"/>
<path d="M2.21999 396.89C28.78 378.89 47.06 355.43 51.22 321.46H51.21C50.5531 321.643 50.0533 321.768 49.6537 321.868L49.6521 321.868L49.6497 321.869C49.0236 322.026 48.6438 322.121 48.29 322.28C46.1223 323.253 43.9541 324.225 41.786 325.197L41.6477 325.259C29.0189 330.92 16.3896 336.582 3.83999 342.41C2.68999 342.95 1.67999 345.09 1.65999 346.5C1.56755 352.167 1.6369 357.839 1.70627 363.512C1.73446 365.818 1.76265 368.124 1.77999 370.43C1.79305 373.076 1.78905 375.717 1.7847 378.585C1.78239 380.108 1.77999 381.695 1.77999 383.38C17.543 374.064 27.2406 360.188 36.8518 346.436L36.8525 346.435C39.8685 342.12 42.8761 337.816 46.06 333.67C40.87 346.18 35.56 358.62 26.2 368.61C22.6894 372.355 18.9821 375.91 15.2733 379.467L15.2724 379.468C12.5053 382.121 9.73749 384.775 7.04999 387.51C5.37883 389.216 3.94135 391.145 2.50372 393.075C1.85956 393.94 1.21523 394.805 0.549988 395.65C1.10999 396.07 1.65999 396.48 2.21999 396.89Z" fill="#D5781B"/>
<path d="M804.39 381.68L804.387 381.679C804.184 380.444 803.952 379.306 803.733 378.235C803.283 376.028 802.89 374.102 802.93 372.18C803.033 367.515 803.268 362.853 803.504 358.191V358.166C803.702 354.222 803.901 350.277 804.02 346.33C804.06 345.17 803.22 343.34 802.28 342.89C788.64 336.33 774.92 329.94 761.19 323.57C760.213 323.112 759.147 322.841 758.076 322.569C757.579 322.442 757.081 322.316 756.59 322.17C751.41 343.58 782.41 386.7 804.54 395.94C802.63 392.79 800.54 389.69 797.82 387.3C786.46 377.31 777.36 365.48 769.36 352.76C768.08 350.725 767.088 348.513 766.096 346.302C765.63 345.265 765.165 344.228 764.67 343.21C764.88 343.085 765.088 342.96 765.295 342.835C765.503 342.71 765.71 342.585 765.92 342.46C766.192 342.797 766.467 343.132 766.741 343.467C767.446 344.327 768.151 345.188 768.82 346.08C770.276 348.024 771.698 349.998 773.12 351.972C776.269 356.345 779.419 360.719 782.94 364.77C783.192 365.06 783.444 365.351 783.697 365.642C789.159 371.944 794.763 378.409 804.387 381.679L804.39 381.7V381.68Z" fill="#D5781B"/>
<path d="M1.52002 464.17V478.96C3.59818 477.565 5.5785 476.241 7.48821 474.964L7.59626 474.892C12.0769 471.897 16.1705 469.16 20.23 466.37C41.88 451.49 60.1 433.33 73.28 410.45C78.2991 401.731 78.1724 401.572 71.9437 393.743L71.79 393.55C71.2749 392.908 70.8002 392.237 70.24 391.446C69.9193 390.992 69.5705 390.5 69.17 389.95C53.31 421.22 30.69 445.72 1.52002 464.17Z" fill="#D5781B"/>
<path d="M735.58 392.25C737.805 395.441 739.976 398.628 742.132 401.795L742.133 401.796C746.876 408.76 751.551 415.624 756.59 422.21C769 438.42 783.05 452.97 801.23 462.95C802.12 463.44 802.93 464.89 802.99 465.94C803.145 468.477 803.121 471.018 803.094 474.03V474.038C803.082 475.309 803.07 476.665 803.07 478.14C800.416 476.446 797.834 474.857 795.32 473.31L795.317 473.308C790.085 470.088 785.15 467.051 780.49 463.64C759.79 448.48 743.45 429.48 731.03 406.98C728.79 402.92 729.02 399.98 731.85 396.76C732.834 395.641 733.768 394.477 734.599 393.442C734.941 393.016 735.266 392.611 735.57 392.24L735.58 392.25Z" fill="#D5781B"/>
<path d="M0.969873 435.997L0.970006 436H0.960006L0.969873 435.997Z" fill="#D5781B"/>
<path d="M47.2 371.73C47.9399 394.335 17.3922 431.555 0.969873 435.997C0.63064 429.209 3.05076 425.699 8.78001 421.73C25.13 410.42 37.38 395.05 45.39 376.61C45.7819 375.711 46.1099 374.785 46.5252 373.613L46.5256 373.611C46.7248 373.049 46.944 372.43 47.2 371.73Z" fill="#D5781B"/>
<path d="M802.28 436.65C780.99 420.69 763.41 402.34 758.96 374.8C760.676 377.547 762.306 380.355 763.935 383.159C767.612 389.491 771.278 395.802 775.88 401.34C783.11 410.04 791.85 417.58 800.49 424.98C803.884 427.884 803.322 430.758 802.725 433.81C802.543 434.742 802.357 435.69 802.28 436.66V436.65Z" fill="#D5781B"/>
<path d="M16.73 433.35C32.95 419.01 45.92 402.47 55.74 382.56C56.77 395.62 29.56 430.53 16.73 433.35Z" fill="#D5781B"/>
<path d="M788.93 433.85C772.58 427.29 752.93 402.81 751.29 386.95C760.15 405.57 772.84 421.07 788.93 433.85Z" fill="#D5781B"/>
<path d="M483.859 268.6C485.755 269.271 487.651 269.943 489.54 270.63V270.64L490.8 268.54C489.103 267.534 487.413 266.517 485.724 265.501L485.722 265.5C480.859 262.574 475.999 259.649 470.99 257C470.04 256.501 468.633 256.88 467.224 257.26C466.571 257.435 465.918 257.611 465.31 257.7C465.659 258.261 465.966 258.918 466.274 259.575C466.936 260.989 467.598 262.403 468.67 262.86C473.644 264.982 478.751 266.791 483.859 268.6Z" fill="#D5781B"/>
<path d="M29.5 265.05C24.585 261.83 19.6675 258.61 14.75 255.39L14.7444 255.386C9.82875 252.168 4.91313 248.949 0 245.73C0.101072 245.573 0.202143 245.415 0.303436 245.256C0.562781 244.851 0.824035 244.443 1.09 244.04C6.07276 247.169 11.053 250.297 16.0333 253.426L16.0361 253.428L16.1782 253.517C21.1146 256.618 26.0511 259.719 30.99 262.82C30.745 263.195 30.4975 263.568 30.25 263.94C30.0025 264.312 29.755 264.685 29.51 265.06L29.5 265.05Z" fill="#D5781B"/>
</svg>
