<svg width="1293" height="278" viewBox="0 0 1293 278" fill="none" xmlns="http://www.w3.org/2000/svg">
<path d="M219.365 37.8945L219.366 37.8954C220.896 39.0193 222.413 40.1335 223.922 41.2169H223.945C224.173 40.8999 224.396 40.5427 224.627 40.172C225.166 39.3066 225.751 38.3682 226.559 37.6985C228.898 35.7631 228.053 34.2528 226.234 32.8097C224.725 31.6152 223.191 30.4507 221.657 29.2864L221.656 29.286L221.655 29.2852C219.333 27.5222 217.011 25.7595 214.776 23.8934C210.494 20.3191 205.596 18.7305 200.111 18.6018C199.309 18.5848 198.509 18.5119 197.71 18.4389C196.931 18.3678 196.152 18.2967 195.37 18.2774C194.316 18.2514 193.262 18.2226 192.208 18.1938L192.201 18.1936C188.048 18.0802 183.892 17.9666 179.742 18.0201C176.977 18.0537 175.342 19.7989 174.839 22.5118C174.648 23.5131 174.497 24.5367 174.458 25.5547C174.38 27.6244 173.652 28.6424 171.295 28.7879C166.291 29.0899 163.963 32.9104 165.608 37.6426C165.821 38.2579 166.067 38.8732 166.398 39.427C167.523 41.3176 167.4 42.7608 165.351 44.0641C162.771 45.703 161.461 48.6173 162.91 51.0729C165.34 55.1898 165.077 59.0103 163.621 63.144C163.381 63.8208 163.403 64.6207 163.437 65.3591C163.453 65.6977 163.47 66.0364 163.486 66.375L163.486 66.3784C163.659 69.943 163.832 73.5071 164.103 77.0665C164.183 78.1418 164.338 79.2111 164.493 80.2793L164.493 80.2819V80.2825C164.672 81.5194 164.851 82.7551 164.914 83.9971C165.603 97.3882 181.152 102.037 189.991 97.3603C194.793 94.8207 198.224 91.3359 199.489 86.5086C198.586 87.2636 197.688 88.0862 196.776 88.922L196.776 88.9228L196.775 88.9232L196.775 88.9237C194.661 90.8614 192.47 92.8699 189.94 94.2726C186.162 96.3646 181.723 96.7394 177.559 94.7089C184.791 93.5957 190.36 90.3962 191.384 86.5366C183.8 91.1737 179.843 91.8561 176.652 89.0761C187.063 85.0431 188.636 84.053 189.493 80.9765C181.763 85.2612 175.628 85.4234 171.575 81.1219C176.378 81.8827 180.542 81.2618 184.298 77.4917C179.58 76.5687 175.432 75.5898 172.991 71.4226C173.971 71.5788 174.933 71.743 175.884 71.9054L175.886 71.9057L175.892 71.9066L175.895 71.9072L175.897 71.9075C177.938 72.2559 179.931 72.5959 181.936 72.8322C189.599 73.7383 197.172 74.7284 204.55 77.4078C207.615 78.5201 211.064 78.6467 214.467 78.7716C215.377 78.8049 216.283 78.8382 217.177 78.8901C218.058 78.94 218.968 78.5174 219.876 78.0956C220.289 77.9034 220.702 77.7114 221.112 77.5644C221.129 77.2455 221.146 76.9211 221.163 76.5967C220.392 76.1736 219.622 75.7511 218.853 75.3287L218.848 75.3257C217.136 74.3866 215.427 73.4485 213.718 72.5077C213.592 72.6168 213.466 72.7273 213.34 72.8377C213.214 72.9482 213.088 73.0587 212.962 73.1678C213.36 74.2827 213.754 75.4008 214.145 76.5098L214.152 76.5281C214.271 76.8651 214.389 77.2014 214.507 77.5364C211.474 76.7813 210.539 75.6234 211.809 73.2181C213.074 70.824 211.776 69.9962 210.136 69.1515C209.418 68.7822 208.702 68.4076 207.985 68.0329L207.984 68.0323L207.982 68.0312C205.315 66.6358 202.645 65.2389 199.87 64.1061C196.741 62.8307 193.45 61.8127 190.136 61.1359C187.117 60.5198 184.071 60.0268 181.026 59.5339C178.376 59.1048 175.725 58.6758 173.092 58.1656C172.466 58.0436 171.929 57.4639 171.391 56.884C171.14 56.6133 170.889 56.3426 170.629 56.1184C170.941 55.9757 171.257 55.7887 171.572 55.6016C172.258 55.1947 172.944 54.7876 173.596 54.8374C175.769 55.0025 177.937 55.2619 180.105 55.5211C183.297 55.9029 186.488 56.2845 189.688 56.3645C196.019 56.5267 201.393 58.9543 206.654 62.0308C209.032 63.4226 211.431 64.7869 213.758 66.1106L213.76 66.112C214.921 66.7722 216.064 67.4225 217.177 68.0608C217.633 67.207 218.084 66.3591 218.553 65.4774C219.203 64.2567 219.888 62.9713 220.664 61.5162C219.228 60.5556 217.774 59.6064 216.317 58.6547C212.989 56.4809 209.64 54.2941 206.425 51.9287C202.316 48.897 197.805 47.3252 192.834 46.5812C188.483 45.9318 184.156 45.1046 179.83 44.2773C179.125 44.1426 178.42 44.0079 177.716 43.8739C176.958 43.727 176.226 43.4636 175.455 43.1859C175.08 43.0511 174.696 42.9129 174.296 42.7831C174.629 42.0573 174.92 41.4257 175.205 40.8098C175.475 40.2247 175.739 39.6538 176.025 39.0298C178.151 39.3435 180.269 39.6514 182.382 39.9584L182.389 39.9594L182.391 39.9596C187.96 40.7688 193.491 41.5725 199.008 42.4643C200.777 42.7496 202.674 43.2866 204.141 44.271C208.84 47.4263 213.465 50.698 217.867 53.8117C219.411 54.9042 220.928 55.9772 222.411 57.0189C223.135 55.7211 223.91 54.3397 224.744 52.8534L224.75 52.8427L224.755 52.834L224.811 52.7338C225.322 51.8223 225.855 50.8713 226.413 49.8759C226.121 49.6256 225.813 49.3541 225.493 49.0713L225.493 49.0706C224.747 48.4119 223.933 47.6915 223.071 47.0343C221.762 46.0347 220.429 45.064 219.096 44.0935C216.587 42.2674 214.079 40.4418 211.737 38.4257C207.768 35.008 203.335 33.1845 198.18 32.4685C193.819 31.8666 189.492 31.0355 185.083 30.1886L185.082 30.1885L185.081 30.1882C183.179 29.8231 181.263 29.4549 179.322 29.1011L179.882 25.4652C181.82 25.6959 183.735 25.9196 185.631 26.1412C190.54 26.715 195.329 27.2746 200.105 27.9041C200.624 27.9726 201.159 28.0269 201.699 28.0817C203.716 28.2862 205.798 28.4975 207.348 29.4815C211.501 32.1186 215.476 35.038 219.365 37.8945Z" fill="#D5781B"/>
<path d="M177.665 105.376L177.677 105.375C182.438 114.048 187.267 122.848 192.095 131.649C191.976 131.715 191.857 131.781 191.738 131.847L191.592 131.929C191.424 132.022 191.256 132.116 191.088 132.209C188.938 128.411 186.79 124.612 184.642 120.814L184.565 120.678C182.443 116.925 180.321 113.173 178.197 109.42L177.301 109.901L190.091 134.552C190.287 134.538 190.484 134.526 190.682 134.513C190.879 134.501 191.077 134.488 191.273 134.474C191.781 133.756 192.286 133.035 192.792 132.314L192.796 132.308C193.97 130.633 195.145 128.957 196.361 127.309C198.661 124.193 199.534 121.53 196.484 117.922C194.824 115.961 193.695 113.559 192.56 111.146L192.56 111.146L192.56 111.145C191.893 109.726 191.224 108.303 190.444 106.965C189.896 106.036 188.569 105.029 187.567 104.99C185.394 104.903 183.209 105.042 180.81 105.193C179.808 105.257 178.768 105.323 177.677 105.375L177.671 105.365L177.665 105.376Z" fill="#D5781B"/>
<path d="M211.703 13.4697C210.995 13.4515 210.288 13.4333 209.582 13.4333L209.576 13.4389C209.546 13.6185 209.521 13.8025 209.496 13.983L209.486 14.0486C210.633 14.786 211.773 15.5345 212.913 16.2831C215.551 18.0161 218.19 19.749 220.911 21.3427C224.001 23.1495 229.055 21.9468 231.333 19.1892C232.783 17.4328 233.018 13.8361 231.759 12.102C230.526 10.4119 229.21 10.8947 227.842 11.3966C227.408 11.5558 226.968 11.7169 226.525 11.8112C223.194 12.5216 219.808 13.0362 216.422 13.3886C214.863 13.5509 213.284 13.5103 211.703 13.4697Z" fill="#D5781B"/>
<path d="M229.411 53.5417L229.412 53.5423C231.105 54.6852 232.798 55.8283 234.311 57.17C235.055 57.83 235.509 59.648 235.134 60.5318C234.725 61.4939 232.839 62.8084 232.223 62.5399C229.839 61.4995 227.18 60.2856 225.685 58.3279C225.103 57.5614 225.498 56.0522 225.893 54.5401C226.072 53.8563 226.251 53.1719 226.34 52.5552L227.465 52.214H227.471C228.11 52.6638 228.76 53.1025 229.41 53.5412L229.411 53.5417Z" fill="#D5781B"/>
<path d="M232.71 48.0212C232.823 48.0585 232.922 48.0914 232.996 48.1251V48.1195C235.324 48.0468 236.69 45.58 235.419 43.8851C234.154 42.2014 232.62 40.6799 230.997 39.3263C230.376 38.8061 228.523 38.5935 228.372 38.8676C227.745 40.0199 226.861 41.7987 227.331 42.6209C228.16 44.0626 229.416 45.2678 230.664 46.4653L230.665 46.4657C231.034 46.8199 231.402 47.1735 231.758 47.5321C232.019 47.7921 232.412 47.9223 232.71 48.0212Z" fill="#D5781B"/>
<path d="M221.98 63.8544C222.659 64.2799 223.322 64.6822 223.968 65.0742C225.674 66.1095 227.262 67.0727 228.719 68.2006C229.184 68.5586 229.184 70.2926 228.736 70.8688C228.171 71.596 226.704 72.3511 225.993 72.0938C224.04 71.3834 222.12 70.3374 220.525 69.0173C219.954 68.5418 220.177 66.8637 220.373 65.7954C220.452 65.3774 220.827 65.0142 221.275 64.5796C221.499 64.3628 221.741 64.1281 221.974 63.86L221.98 63.8544Z" fill="#D5781B"/>
<path d="M197.611 105.367C196.928 104.427 196.246 103.487 195.588 102.534L194.832 102.803C195.292 107.498 197.597 111.486 199.953 115.561C200.409 116.35 200.867 117.143 201.314 117.945C201.371 117.802 201.43 117.658 201.489 117.511C202.187 115.782 202.984 113.809 202.344 112.592C201.014 110.056 199.312 107.711 197.611 105.367Z" fill="#D5781B"/>
<path fill-rule="evenodd" clip-rule="evenodd" d="M152.063 191.781C138.052 201.424 123.096 202.593 107.384 198.885V198.896C108.76 200.891 110.113 202.877 111.459 204.852L111.46 204.853L111.461 204.854L111.461 204.855C114.459 209.253 117.419 213.596 120.493 217.853C128.755 229.297 139.368 237.677 153.216 241.223C156.485 242.062 160.246 241.939 163.593 241.29C166.706 240.692 169.739 239.092 172.504 237.431C186.162 229.213 197.609 218.373 207.136 205.759C216.086 193.906 222.864 180.756 226.782 166.24C227.798 162.474 229.193 158.813 230.587 155.15C231.229 153.466 231.87 151.781 232.475 150.086C233.029 152.323 233.292 154.449 232.99 156.485C228.467 186.791 215.537 212.791 192.957 233.756C186.151 240.076 178.471 244.831 169.073 246.28C168.347 246.39 167.64 246.631 166.931 246.873C166.601 246.985 166.271 247.098 165.939 247.197C165.964 247.284 165.988 247.37 166.011 247.457L166.029 247.521C166.047 247.586 166.065 247.652 166.084 247.717C166.603 247.832 167.123 247.947 167.643 248.062C168.161 248.176 168.679 248.291 169.196 248.405C169.192 248.447 169.188 248.488 169.184 248.53C169.181 248.568 169.178 248.606 169.174 248.643L169.164 248.758C169.155 248.868 169.146 248.978 169.135 249.088C168.185 249.088 167.224 249.139 166.262 249.191H166.252C164.111 249.306 161.969 249.421 159.955 248.97C155.833 248.048 151.785 246.775 147.738 245.502L147.736 245.501L147.69 245.487C146.18 245.012 144.671 244.537 143.157 244.081C142.009 243.735 140.874 243.351 139.738 242.967L139.737 242.966L139.724 242.962C139.214 242.79 138.704 242.617 138.192 242.448C138.288 243.494 138.567 244.003 138.993 244.311C140.776 245.612 142.542 246.942 144.308 248.273L144.312 248.275L144.314 248.277C148.87 251.709 153.428 255.143 158.287 258.077C161.976 260.303 166.61 261.78 170.909 262.043C186.229 262.988 191.39 256.231 198.79 243.673C197.851 244.102 196.919 244.547 195.987 244.992L195.985 244.993C193.854 246.01 191.724 247.027 189.521 247.851C187.293 248.689 184.996 249.338 182.698 249.988L182.69 249.99C181.676 250.277 180.661 250.563 179.652 250.866C179.608 250.73 179.562 250.595 179.516 250.461L179.482 250.362L179.446 250.255C179.431 250.21 179.416 250.165 179.401 250.12L179.378 250.05C179.658 249.921 179.941 249.799 180.225 249.678C180.768 249.444 181.311 249.21 181.83 248.931C182.994 248.308 184.182 247.717 185.371 247.127C188.108 245.767 190.846 244.407 193.293 242.644C207.225 232.614 217.004 219.134 224.431 203.858C231.734 188.834 235.353 172.732 238.971 156.629C239.998 152.059 241.025 147.489 242.136 142.943C243.524 137.271 245.058 131.61 246.983 126.106C247.954 123.331 248.999 120.58 250.044 117.83L250.044 117.829C253.193 109.541 256.34 101.257 257.445 92.3372C257.636 90.7985 257.756 89.2521 257.877 87.6979C257.934 86.9694 257.991 86.2392 258.055 85.5074C258.196 85.5352 258.312 85.5524 258.409 85.5668C258.585 85.593 258.698 85.6099 258.788 85.664C258.939 85.7535 259.102 85.9101 259.152 86.0723C261.268 92.9357 262.259 99.6984 259.611 106.808C256.605 114.874 253.711 123.063 251.741 131.426C250.694 135.876 249.679 140.335 248.664 144.794L248.663 144.801C244.479 163.185 240.296 181.564 233.818 199.349C228.708 213.383 222.87 227.06 213.768 239.053C212.66 240.514 211.537 241.963 210.414 243.412L210.413 243.414C206.014 249.091 201.622 254.76 198.135 261.114C196.87 263.419 194.463 265.427 192.118 266.764C180.693 273.28 169.012 272.76 157.761 266.523C146.001 260.006 134.196 253.719 121.092 250.296C117.774 249.429 114.445 248.601 111.116 247.773L111.112 247.773C106.04 246.511 100.969 245.25 95.9376 243.852C69.6298 236.541 50.6098 220.795 40.2882 195.204C39.207 192.524 38.2898 189.778 37.3475 186.957L37.3471 186.955C36.9187 185.673 36.4851 184.375 36.0286 183.06C34.5173 198.398 40.0476 211.191 49.3113 222.468C62.5491 238.588 80.0746 248.075 100.236 252.03C118.439 255.604 135.685 261.287 151.744 270.483C158.393 274.293 165.34 277.022 172.991 277.593C186.705 278.616 201.924 274.192 207.824 257.858C208.86 254.995 210.807 252.187 213.024 250.083C219.898 243.556 225.058 235.881 229.077 227.424C235.436 214.038 240.546 200.132 244.302 185.818C247.345 174.226 250.178 162.579 253.01 150.931L253.012 150.927C254.968 142.882 256.925 134.838 258.951 126.811C259.897 123.063 260.932 119.075 263.02 115.92C267.515 109.135 269.502 101.958 268.533 93.9593C268.175 91.0339 268.746 88.6342 270.537 86.1674C272.261 83.8013 273.532 81.0045 274.495 78.2188C276.681 71.8757 278.629 65.453 280.576 59.0334L280.576 59.0325L280.576 59.0305L280.73 58.5236C282.717 51.9511 281.637 45.8876 277.758 40.1821C276.543 38.4033 275.519 36.1994 275.284 34.0962C274.528 27.2608 271.237 22.6181 264.677 20.4478C262.561 19.7485 261.307 18.4564 260.479 16.37C258.676 11.8336 255.111 9.31082 250.359 8.58924C247.795 8.20328 245.17 8.06344 242.573 8.06344C240.933 8.05785 239.903 7.71663 238.996 6.17279C235.867 0.853242 231.132 -1.05978 225.182 0.556779C223.823 0.927305 222.503 1.43513 221.183 1.94285C219.893 2.4392 218.603 2.93549 217.278 3.30326C215.828 3.706 214.009 4.01365 212.705 3.48785C207.387 1.35108 202.635 2.0335 198.387 5.75327C195.213 8.53331 191.603 8.98639 187.668 8.35431C187.245 8.28519 186.822 8.21422 186.4 8.14326C185.352 7.96732 184.304 7.79139 183.251 7.64392C173.859 6.31263 166.571 10.8714 163.705 19.743C163.459 20.5037 162.698 21.298 161.965 21.6728C155.404 25.0289 152.382 30.1863 153.261 37.5867C153.641 40.803 153.619 43.7508 152.432 46.8441C151.763 48.5765 151.846 50.6717 151.923 52.6168L151.934 52.8853C152.054 56.0326 152.23 59.18 152.405 62.3276L152.405 62.3289V62.3362C152.711 67.8229 153.017 73.3108 153.031 78.8006C153.048 85.9325 154.195 92.6672 157.218 99.1055C158.512 101.865 159.794 104.631 161.076 107.398L161.076 107.398L161.087 107.422L161.088 107.425L161.1 107.451C162.705 110.913 164.31 114.376 165.939 117.827C167.809 121.794 169.695 125.752 171.58 129.709C173.697 134.151 175.813 138.592 177.906 143.044C179.779 147.024 179.623 147.12 176.239 149.2C176.104 149.283 175.963 149.37 175.818 149.459C172.917 151.249 170.318 153.558 167.749 155.841L167.338 156.205C166.852 156.638 166.659 157.397 166.466 158.157C166.376 158.509 166.287 158.861 166.168 159.181C173.546 152.463 182.205 149.527 191.133 147.015C193.383 146.383 195.784 145.32 197.458 143.754C209.559 132.421 216.69 118.314 219.713 102.143C220.372 98.6067 220.659 94.9998 220.948 91.3544L220.948 91.3529C221.082 89.6762 221.215 87.9914 221.387 86.3016L221.86 86.1771C222.913 85.9004 224.099 85.5886 225.545 85.2053C225.882 91.2117 224.864 96.9295 223.851 102.621C223.364 105.352 222.879 108.076 222.545 110.824L223.157 109.696C223.6 108.877 224.042 108.061 224.487 107.244C219.03 121.665 212.901 135.705 201.258 146.59C201.325 146.638 201.393 146.687 201.461 146.735L201.563 146.808L201.591 146.827C201.638 146.861 201.685 146.895 201.732 146.928C201.778 146.961 201.823 146.994 201.868 147.026C204.524 146.369 207.182 145.713 209.839 145.057C212.496 144.401 215.154 143.746 217.81 143.088L218.246 144.448C216.582 145.062 214.931 145.751 213.279 146.44L213.265 146.447C209.557 147.994 205.847 149.542 201.986 150.254C193.618 151.792 185.765 154.55 178.32 158.336C174.447 160.311 170.646 163.192 167.937 166.559C157.184 179.922 155.97 194.773 162.608 210.341C163.677 212.851 165.072 215.222 166.468 217.593L166.468 217.594C167.112 218.688 167.756 219.782 168.368 220.89C165.133 218.972 162.116 216.701 159.468 214.055C153.456 208.053 152.516 200.155 152.063 191.781ZM263.071 83.9302C263.306 84.0168 263.542 84.1034 263.778 84.19C264.015 84.2767 264.251 84.3635 264.486 84.4502C264.928 83.6042 265.404 82.7701 265.88 81.936C266.937 80.0842 267.994 78.2321 268.673 76.2499C270.873 69.8396 272.871 63.3398 274.551 56.7784C275.295 53.8753 275.429 50.6926 275.133 47.7055C274.959 45.9883 273.705 43.997 272.328 42.8838C270.638 41.519 270.056 40.1374 270.157 38.1348C270.644 28.5865 267.599 26.019 260.098 24.5814C258.721 24.3185 256.885 22.9425 256.482 21.6895C254.574 15.7267 250.347 13.9368 244.633 14.1997C243.184 14.2655 241.73 14.2482 240.308 14.2314C239.675 14.2239 239.048 14.2164 238.431 14.2164C236.757 7.06218 232.15 4.39401 225.641 6.9559C220.228 9.08148 214.871 9.38354 209.279 8.11378C205.982 7.36424 203.368 8.29278 201.98 11.291C200.822 13.8025 198.997 14.1102 196.825 14.0207C192.079 13.8193 187.338 13.534 182.602 13.204C175.745 12.7285 171.256 15.682 169.482 22.2097C168.95 24.1619 167.853 25.1184 166.112 25.8848C160.425 28.3963 158.483 33.2796 160.431 39.1864C160.789 40.2716 160.526 41.9105 159.916 42.9006C158.298 45.5296 156.709 48.3992 157.761 51.2799C159.244 55.3576 159.379 59.3123 158.684 63.4405C158.663 63.5791 158.675 63.7279 158.686 63.8737C158.69 63.9161 158.693 63.9582 158.696 63.9998C158.794 65.6522 158.908 67.3045 159.022 68.957L159.022 68.9577C159.28 72.6921 159.538 76.4274 159.608 80.1654C159.726 86.475 161.573 92.2309 164.332 97.8022C172.275 113.822 179.412 130.195 186.358 147.065C206.134 131.784 214.104 110.623 215.929 86.2457C221.117 86.4671 224.616 83.3346 228.142 80.1778C229.337 79.1077 230.535 78.0349 231.803 77.0889C232.292 76.7225 232.559 76.0782 232.83 75.422C233.006 74.9964 233.184 74.5657 233.427 74.2026C233.707 73.7827 233.979 73.3512 234.251 72.9187L234.252 72.9178C235.101 71.5703 235.956 70.2127 237.087 69.1627C241.375 65.1801 242.203 61.0352 239.354 55.9114C239.105 55.4602 238.838 55.0146 238.561 54.5508C238.447 54.3592 238.33 54.1644 238.212 53.9648C238.239 53.9299 238.266 53.8955 238.292 53.8615C238.347 53.7894 238.4 53.7193 238.451 53.651L238.454 53.6473C238.618 53.4294 238.768 53.2306 238.929 53.0475C243.239 48.1586 243.395 44.7185 239.276 39.7402C236.947 36.9302 234.531 34.1896 232.133 31.4704C231.061 30.2546 229.992 29.0429 228.937 27.8314C229.675 27.34 230.487 26.8831 231.311 26.4194C233.207 25.352 235.168 24.2486 236.432 22.6069C238.89 19.4185 241.879 19.0382 245.231 18.9878C250.056 18.9151 252.223 20.5373 252.782 25.3086C253.265 29.4234 253.469 33.5733 253.673 37.7196L253.673 37.7205C253.739 39.0583 253.804 40.3958 253.879 41.7315C254.144 46.4379 254.381 51.147 254.617 55.855L254.617 55.8708C254.725 58.0177 254.833 60.1644 254.943 62.3105C255.469 61.6785 255.559 61.0464 255.615 60.4143C255.836 58.0161 256.063 55.6178 256.289 53.2194L256.289 53.2154L256.289 53.2142C256.955 46.166 257.62 39.1162 258.167 32.0601C258.363 29.5486 259.354 29.062 261.537 29.6493C264.811 30.5331 266.043 31.9427 265.752 35.5002C265.244 41.8026 264.662 48.1 264.08 54.3974C263.789 57.5458 263.498 60.6942 263.216 63.8432C263.186 64.1972 263.224 64.5563 263.263 64.917C263.281 65.0921 263.3 65.2675 263.311 65.443L263.736 65.4318C264.657 62.1087 265.577 58.787 266.496 55.4653C267.416 52.1445 268.335 48.8238 269.255 45.5017C269.608 45.5632 269.961 45.6247 270.308 45.6807C270.308 46.1088 270.332 46.5419 270.356 46.9749C270.408 47.9112 270.46 48.847 270.269 49.7304C269.022 55.5463 267.734 61.3541 266.445 67.1623L266.444 67.169C265.58 71.062 264.716 74.9551 263.865 78.8509C263.612 80.0149 263.451 81.1978 263.29 82.3828C263.219 82.8987 263.149 83.415 263.071 83.9302ZM165.822 201.249L165.794 201.467C165.771 201.645 165.749 201.823 165.726 202V202.006C158.841 180.683 177.24 162.028 196.265 158.225C196.205 158.272 196.144 158.32 196.084 158.367L195.986 158.443L195.79 158.597C195.616 158.733 195.442 158.868 195.268 159.004L195.254 159.015C194.463 159.631 193.673 160.246 192.896 160.882C191.262 162.215 189.594 163.515 187.926 164.815C184.095 167.801 180.262 170.787 176.842 174.189C169.907 181.091 167.344 190.192 166.028 199.657C165.956 200.186 165.889 200.717 165.822 201.249ZM184.377 223.603L188.399 220.138C191.915 217.108 195.295 214.195 198.616 211.336C195.804 213.761 192.944 216.223 189.995 218.764L189.994 218.765C188.159 220.344 186.291 221.954 184.377 223.603Z" fill="#D5781B"/>
<path fill-rule="evenodd" clip-rule="evenodd" d="M352.007 112.614C351.806 114.963 351.66 117.111 354.409 118.169H354.403C350.199 121.234 349.662 120.982 346.085 117.268C345 116.138 342.665 115.444 341.093 115.702C337.163 116.344 333.312 117.527 329.495 118.7L329.478 118.706C320.528 121.446 312.238 125.58 305.896 132.561C294.701 144.884 287.458 158.264 295.602 175.459C299.101 182.837 304.586 187.356 312.227 189.56C318.423 191.344 324.434 189.998 330.478 188.644C330.665 188.602 330.853 188.56 331.04 188.518C331.197 188.483 331.353 188.448 331.51 188.413C348.649 184.599 361.831 174.731 373.048 161.743C374.828 159.685 375.046 158.135 372.466 156.418C370.888 155.366 369.65 153.705 368.514 152.133C367.657 150.948 366.943 149.66 366.227 148.371C365.91 147.799 365.592 147.226 365.262 146.663C390.849 163.226 419.341 171.055 447.825 178.881C448.478 179.06 449.13 179.24 449.783 179.419C449.848 179.297 449.914 179.175 449.98 179.053C450.027 178.966 450.074 178.879 450.121 178.792C450.181 178.682 450.241 178.572 450.301 178.462C450.354 178.364 450.407 178.265 450.46 178.166C450.138 177.935 449.826 177.681 449.514 177.427C448.851 176.889 448.189 176.35 447.432 176.035C443.816 174.533 440.158 173.127 436.502 171.721C435.733 171.425 434.963 171.129 434.194 170.833C432.414 170.145 431.552 169.054 432.397 167.616C430.855 167.254 429.32 166.906 427.792 166.56L427.787 166.559C424.204 165.747 420.662 164.945 417.167 163.98C415.328 163.47 413.537 162.785 411.746 162.1C410.238 161.523 408.73 160.946 407.192 160.473C404.891 159.764 402.566 159.123 400.241 158.483C393.332 156.58 386.424 154.678 380.146 150.953C376.002 148.495 371.8 146.138 367.601 143.784L367.585 143.774L367.581 143.772L367.3 143.614C366.352 143.08 365.364 142.62 364.375 142.159L364.374 142.159C363.943 141.958 363.513 141.757 363.085 141.55C366.23 141.483 369.169 141.908 372.085 142.439C375.009 142.974 377.927 143.607 380.844 144.24C387.234 145.625 393.623 147.01 400.067 147.367C410.59 147.955 421.286 147.11 431.787 145.851C435.913 145.357 439.915 143.766 443.905 142.181C445.42 141.579 446.933 140.977 448.451 140.437C449.973 139.894 451.445 138.96 450.874 136.84C428.266 144.291 405.558 147.854 382.161 141.925C383.112 141.505 384.086 141.466 385.055 141.511C386.776 141.59 388.497 141.689 390.217 141.787L390.23 141.788C393.616 141.982 397.002 142.177 400.391 142.221C408.359 142.329 416.15 140.958 423.944 139.585L423.945 139.585C426.236 139.181 428.528 138.778 430.824 138.412C436.853 137.455 442.294 135.268 447.46 132.259C448.579 131.605 449.861 130.201 449.968 129.043C450.371 124.601 450.427 120.121 450.427 115.657C450.415 103.094 450.331 90.5248 450.175 77.9559C450.169 77.2343 449.397 76.1268 448.725 75.8695C446.122 74.8738 443.452 74.018 440.749 73.3524C427.847 70.164 415.409 72.0658 403.33 77.0777C390.853 82.2518 380.375 89.9822 372.483 101.114C367.063 108.755 364.176 117.441 361.28 126.153L361.274 126.171C361.065 126.802 360.855 127.433 360.644 128.064C360.144 129.567 359.576 131.05 359.008 132.533C358.743 133.224 358.478 133.915 358.221 134.608L357.353 134.457C357.245 133.67 357.084 132.875 356.922 132.081C356.561 130.312 356.201 128.544 356.441 126.861C357.118 122.134 357.941 117.279 359.715 112.888C359.95 112.305 360.185 111.72 360.42 111.133C362.918 104.904 365.482 98.5086 369.421 93.2433C384.4 73.2125 405.446 65.3479 429.867 65.4094C433.723 65.4206 437.578 65.6995 441.434 65.9784C443.344 66.1166 445.253 66.2547 447.163 66.3603C447.268 66.3662 447.373 66.3735 447.477 66.3807C448.651 66.4622 449.704 66.5354 449.704 64.5312C449.701 59.0838 449.798 53.6363 449.895 48.1889C449.937 45.8332 449.979 43.4775 450.012 41.1218C450.02 40.6769 449.994 40.232 449.964 39.7219L449.964 39.7208C449.948 39.4489 449.931 39.1585 449.917 38.8396C449.632 38.9398 449.377 39.0151 449.147 39.083C448.721 39.2086 448.381 39.3089 448.098 39.4941C446.552 40.5085 445.004 41.5191 443.456 42.5297L443.445 42.5367L443.444 42.5377C438.217 45.9491 432.99 49.361 427.863 52.9188C424.953 54.9437 422.115 56.1743 418.421 56.3253C402.905 56.963 388.458 60.996 376.244 71.1373C363.141 82.0169 353.513 94.9382 352.007 112.614ZM303.217 151.427C303.084 151.486 302.907 151.563 302.666 151.68C306.148 143.016 312.305 137.45 319.722 133.288C328.028 128.629 336.833 125.144 346.472 124.405C348.106 124.277 349.841 124.422 351.414 124.859C352.035 125.032 352.546 125.6 353.057 126.168C353.288 126.424 353.519 126.681 353.759 126.9C353.515 127.106 353.278 127.352 353.042 127.597C352.519 128.139 351.997 128.681 351.392 128.797C349.881 129.085 348.347 129.261 346.814 129.437C345.02 129.642 343.227 129.848 341.473 130.234C326.791 133.478 313.917 140.073 303.596 151.216C303.527 151.291 303.427 151.335 303.217 151.427ZM370.905 159.734C370.974 159.829 371.042 159.923 371.111 160.017L371.31 160.289C371.384 160.39 371.457 160.491 371.531 160.591H371.526C370.071 161.851 368.627 163.125 367.183 164.4L367.161 164.42C363.978 167.229 360.795 170.039 357.493 172.701C348.319 180.096 337.812 184.811 326.175 186.456C322.28 187.007 318.214 186.572 314.214 186.144L314.212 186.143C313.586 186.076 312.961 186.01 312.339 185.947C311.113 185.824 309.937 185.197 308.76 184.57C308.223 184.284 307.686 183.998 307.144 183.76C307.178 183.639 307.21 183.518 307.242 183.396C307.258 183.336 307.274 183.277 307.29 183.217C307.306 183.156 307.323 183.094 307.34 183.032C307.435 183.022 307.532 183.002 307.628 182.983C307.833 182.942 308.038 182.901 308.225 182.943C323.136 186.361 336.402 181.751 348.873 174.206C353.393 171.474 357.694 168.382 361.995 165.291L361.998 165.289L362 165.288C364.046 163.817 366.092 162.347 368.162 160.915C368.71 160.535 369.299 160.214 369.887 159.892L369.888 159.891C370.157 159.744 370.426 159.597 370.692 159.444L370.796 159.586L370.905 159.734Z" fill="#D5781B"/>
<path fill-rule="evenodd" clip-rule="evenodd" d="M93.1669 116.709C95.0059 122.557 94.3609 128.5 92.882 134.561C92.2869 132.826 91.7134 131.112 91.1456 129.415C89.8911 125.666 88.6645 122 87.2952 118.387C79.4365 97.6735 65.0624 83.5496 44.2512 75.8415C29.9219 70.5388 15.7213 70.4157 1.33035 76.0317C1.33035 76.2016 1.33166 76.3656 1.33293 76.5257C1.33539 76.8349 1.33773 77.1297 1.33035 77.4245C1.26324 80.4917 1.19228 83.5589 1.12132 86.6262L1.12129 86.6274L1.12126 86.6283C0.908175 95.8387 0.695069 105.05 0.5859 114.264C0.563511 116.009 0.88816 118.303 1.99085 119.422C5.89783 123.382 9.88318 127.409 14.4227 130.57C28.3658 140.269 44.2736 142.456 60.8139 141.639C62.6353 141.547 64.4488 141.373 66.2634 141.198C67.0865 141.119 67.9098 141.04 68.7342 140.968L68.7678 141.796C56.5991 147.116 44.1281 145.259 31.8978 142.065C19.3652 138.792 8.50062 132.348 0.406783 121.788C0.804199 125.653 3.35661 129.619 8.19277 133.064C19.0461 140.8 30.8958 145.997 44.4135 147.228C54.4049 148.139 64.0884 147.267 73.7159 144.599C77.2928 143.606 80.9209 142.799 84.8035 141.935C86.6565 141.522 88.5675 141.097 90.5585 140.633C89.3618 141.346 88.233 142 87.1564 142.623C84.9599 143.894 82.9809 145.04 81.0877 146.316C73.8447 151.205 66.0923 155.036 57.6122 157.106C52.4369 158.369 47.2032 159.39 41.9693 160.412C39.4365 160.906 36.9037 161.4 34.3774 161.922C34.2926 161.939 34.2014 161.957 34.1067 161.975C33.5018 162.09 32.7546 162.233 32.6142 162.576C31.7289 164.722 29.9045 165.087 28.0945 165.448C27.7531 165.516 27.4123 165.584 27.0784 165.664C25.1896 166.117 23.2899 166.513 21.3908 166.909L21.3838 166.911C20.5669 167.081 19.75 167.251 18.9342 167.426C19.0153 167.532 19.0979 167.64 19.1805 167.748C19.263 167.855 19.3456 167.963 19.4267 168.069C19.2746 168.268 19.1352 168.497 18.9957 168.727C18.6939 169.224 18.3909 169.722 17.9546 169.91C12.9953 172.041 8.00245 174.088 2.98159 176.074L2.91549 176.1C1.60115 176.619 0.51274 177.049 1.82852 179.497C7.68735 177.682 13.5799 175.954 19.4752 174.225C42.5973 167.443 65.7617 160.649 87.0993 148.57C85.4459 150.355 83.7902 152.141 82.0695 153.996C81.1164 155.024 80.1434 156.074 79.1398 157.156C79.5467 157.583 79.9244 158.017 80.2935 158.442C81.0667 159.332 81.802 160.178 82.6886 160.814C83.3447 161.284 84.0005 161.754 84.6565 162.225L84.6655 162.231L84.6746 162.238L84.6837 162.244L84.6868 162.246C89.9184 165.998 95.1552 169.753 100.572 173.227C113.637 181.612 127.759 186.019 143.527 183.76C137.258 186.445 130.748 188.307 124.059 186.512C117.79 184.828 111.498 182.775 105.705 179.906C99.1953 176.684 92.9766 172.695 87.1273 168.377C84.9566 166.773 83.2593 164.531 81.561 162.288L81.5578 162.284C80.7523 161.22 79.9463 160.155 79.0894 159.159C78.787 158.807 78.4138 158.515 78.0398 158.223C77.8671 158.087 77.694 157.952 77.5278 157.811L77.439 157.886C77.249 158.047 77.0553 158.21 76.8617 158.37C76.9835 158.608 77.1026 158.849 77.2219 159.09C77.4863 159.623 77.7513 160.158 78.0483 160.675C83.6849 170.519 91.2974 178.093 102.257 181.891C109.293 184.33 116.323 186.78 123.292 189.398C132.22 192.749 146.018 189.398 151.425 181.589C153.959 177.933 155.79 173.772 157.612 169.631C158.156 168.394 158.7 167.158 159.261 165.938C159.854 164.657 160.017 162.974 159.804 161.564C158.505 152.978 155.863 144.811 150.311 138.009C139.609 124.909 125.414 117.643 109.075 114.152C107.256 113.766 106.416 114.438 105.649 116.043C105.277 116.825 104.597 117.457 103.916 118.09L103.913 118.092C103.612 118.372 103.31 118.653 103.035 118.946C102.785 118.588 102.498 118.241 102.21 117.894L102.208 117.892C101.588 117.144 100.968 116.395 100.723 115.54C100.501 114.765 100.281 113.99 100.061 113.216L100.061 113.214L100.056 113.195C97.5822 104.486 95.1153 95.7991 89.9428 88.1252C76.9344 68.8383 58.7429 58.4789 35.6592 56.6442C30.2185 56.2135 25.5671 54.8039 21.1843 51.168C17.2223 47.8818 12.8658 45.0694 8.51094 42.258C6.75025 41.1213 4.98983 39.9848 3.25586 38.8173C2.839 38.5369 2.35611 38.3569 1.95521 38.2074L1.95439 38.2071C1.79577 38.148 1.65 38.0936 1.52626 38.0397V61.9302C2.48123 62.1082 3.24338 62.2522 4.09286 62.4128L4.10231 62.4146L4.10606 62.4153C4.5871 62.5062 5.09656 62.6025 5.68513 62.7133C4.69092 63.0814 4.01905 63.3319 3.43944 63.548C3.19999 63.6372 2.97628 63.7206 2.75209 63.804C2.76325 63.9434 2.77442 64.0815 2.78558 64.2195L2.78568 64.2208C2.79687 64.3592 2.80807 64.4976 2.81926 64.6375C4.83641 64.7497 6.85427 64.8583 8.87233 64.9669L8.8734 64.967L8.87398 64.967C12.4889 65.1616 16.1045 65.3563 19.7178 65.5716C21.4465 65.6759 23.1815 65.7415 24.9165 65.807H24.9171C29.0469 65.9631 33.1772 66.1192 37.2209 66.7966C51.8917 69.2522 64.8217 75.299 75.4511 86.0779C84.0599 94.8096 89.5566 105.208 93.1669 116.709ZM149.773 152.581C147.809 146.176 143.745 142.16 139.217 138.546C131.476 132.371 122.587 128.36 113.211 125.424C110.222 124.484 107.048 124.014 103.92 123.701C100.925 123.399 98.6635 124.987 96.503 127.879C97.1424 128.066 97.7375 128.275 98.3045 128.474C99.435 128.87 100.454 129.227 101.49 129.294C114.583 130.15 126.304 134.871 137.011 142.126C139.953 144.116 142.651 146.462 145.51 148.947L145.511 148.948C146.878 150.136 148.283 151.357 149.768 152.586L149.773 152.581ZM7.45951 53.0363L8.02562 52.3208C10.5554 53.954 13.0852 55.5872 15.9284 57.4273C11.7695 59.6144 9.26187 58.0873 7.45951 53.0363Z" fill="#D5781B"/>
<path d="M260.299 153.024L260.294 153.023H260.3L260.299 153.024Z" fill="#D5781B"/>
<path fill-rule="evenodd" clip-rule="evenodd" d="M260.075 153.486C260.153 153.331 260.231 153.178 260.299 153.024C292.558 161.607 302.307 197.767 281.682 220.834C285.376 219.509 288.93 217.685 291.281 214.519C293.694 211.269 295.938 207.712 297.354 203.953C298.304 201.427 298.706 198.698 299.118 195.9C299.301 194.658 299.486 193.402 299.722 192.144C313.481 202.991 328.873 202.823 345.492 197.816C342.235 201.841 339.344 206.074 336.485 210.259C330.1 219.605 323.877 228.715 314.107 234.746C309.019 237.889 303.388 240.261 297.774 242.375C296.073 243.019 293.818 242.469 291.769 241.968L291.767 241.967C291.45 241.89 291.138 241.814 290.833 241.743C288.219 241.134 285.471 240.479 283.21 239.131C282.443 238.673 281.674 238.217 280.905 237.76C274.961 234.231 268.99 230.686 263.569 226.461C259.515 223.304 255.855 219.639 252.194 215.972C250.582 214.359 248.971 212.745 247.325 211.174C245.629 209.557 245.802 208.019 246.53 205.748C248.898 198.331 250.818 190.763 252.721 183.206C254.277 177.034 255.75 170.843 257.224 164.654C258.03 161.268 258.836 157.882 259.656 154.499C259.74 154.146 259.908 153.813 260.075 153.486ZM284.131 201.296L285.13 201.273C285.248 200.708 285.394 200.144 285.54 199.58L285.542 199.574C285.852 198.377 286.163 197.18 286.204 195.976C286.787 179.855 276.459 168.741 263.759 162.196C263.149 161.88 262.387 161.853 261.553 161.822C261.147 161.808 260.725 161.792 260.294 161.743C262.034 163.604 263.777 165.394 265.495 167.158C269.364 171.131 273.102 174.969 276.37 179.173C280.771 184.842 282.207 191.886 283.627 198.85L283.628 198.856L283.632 198.873C283.797 199.683 283.962 200.491 284.131 201.296Z" fill="#D5781B"/>
<path d="M341.252 231.943C339.693 232.172 338.134 232.401 336.578 232.642L336.178 231.093C336.695 230.913 337.209 230.727 337.725 230.541C338.862 230.13 340 229.718 341.16 229.376C344.238 228.462 347.33 227.589 350.423 226.717L350.424 226.716C356.909 224.887 363.394 223.057 369.746 220.845C380.655 217.042 388.732 209.44 395.253 200.009C398.864 194.788 401.102 188.974 403.342 183.157C403.969 181.527 404.597 179.896 405.255 178.278C406.56 175.078 406.028 174.312 402.574 172.88C392.303 168.618 382.513 170.089 374.229 177.008C373.654 177.488 373.078 177.968 372.503 178.448C359.739 189.083 346.903 199.779 339.352 215.252C337.17 219.719 334.809 224.098 332.402 228.564L332.401 228.566L332.4 228.568C331.269 230.665 330.128 232.782 328.991 234.936C329.301 234.959 329.602 234.989 329.895 235.02C330.541 235.086 331.154 235.149 331.762 235.115C333.115 235.041 334.475 235 335.836 234.958C339.144 234.857 342.454 234.756 345.682 234.197C361.551 231.451 377.095 227.804 389.18 215.917C397.738 207.493 403.744 197.643 406.632 185.952C406.791 185.317 406.821 184.651 406.844 184.114C406.854 183.894 406.862 183.696 406.879 183.53C405.997 185.326 405.143 187.153 404.286 188.989C402.401 193.026 400.497 197.103 398.231 200.971C390.389 214.346 379.424 223.894 363.857 227.356C362.216 227.723 360.587 228.149 358.959 228.575L358.957 228.575C356.711 229.163 354.464 229.75 352.187 230.181C348.562 230.867 344.906 231.405 341.252 231.943Z" fill="#D5781B"/>
<path d="M98.3501 232.889C107.446 235.126 116.659 235.523 126.427 234.824L126.443 234.813C126.232 234.571 126.067 234.365 125.926 234.188C125.675 233.874 125.501 233.656 125.279 233.509C121.069 230.682 118.686 226.492 116.269 222.24L115.933 221.649C115.875 221.547 115.816 221.445 115.758 221.343C114.817 219.697 113.903 218.02 112.989 216.34C110.009 210.868 107.013 205.367 102.979 200.809C95.3051 192.139 86.478 184.42 77.7013 176.796C69.8649 169.994 60.562 168.718 50.705 171.951C48.9333 172.533 47.1951 173.212 45.4572 173.891L45.4377 173.899C44.6235 174.217 43.8094 174.535 42.9918 174.843C43.6635 186.853 64.7657 213.842 75.7646 216.331C74.639 215.292 73.5036 214.26 72.3675 213.228C63.1535 204.857 53.9008 196.451 49.5855 183.519C49.8512 183.94 50.0786 184.307 50.2825 184.636L50.283 184.637C50.6933 185.298 51.0085 185.806 51.3487 186.299C52.5449 188.028 53.6972 189.781 54.8485 191.532L54.85 191.534C58.563 197.18 62.2656 202.811 67.3964 207.588C75.9661 215.571 85.1906 221.841 96.4861 224.99C97.7284 225.336 98.9713 225.681 100.214 226.026L100.219 226.028C104.62 227.249 109.023 228.472 113.413 229.745C114.349 230.017 115.243 230.429 116.139 230.841L116.139 230.841L116.14 230.842C116.55 231.03 116.961 231.219 117.376 231.395C117.325 231.686 117.269 231.982 117.213 232.279C116.762 232.279 116.305 232.303 115.849 232.328L115.848 232.328C114.864 232.381 113.881 232.435 112.948 232.24C102.391 230.053 91.8515 227.782 81.3172 225.483C80.5485 225.316 79.8177 224.942 79.0951 224.573C78.8969 224.472 78.6993 224.371 78.5017 224.274C65.5717 217.959 56.1737 208.07 49.3952 195.54C48.7347 194.315 48.0742 193.079 47.4529 191.831C47.0414 191.005 46.6567 190.16 46.2728 189.318L46.2715 189.315L46.2711 189.314L46.2698 189.312L46.2659 189.303C46.1246 188.993 45.9833 188.683 45.8409 188.374C49.1657 199.976 55.2333 209.999 64.4242 217.646C70.5982 222.786 77.2926 227.541 85.3529 229.633C89.3346 230.669 93.3306 231.653 97.3277 232.637L98.3501 232.889Z" fill="#D5781B"/>
<path d="M253.896 243.936C260.389 246.817 266.569 249.535 273.599 249.3C266.457 247.303 260.507 243.125 255.044 238.516C251.232 235.3 247.851 231.569 244.475 227.843L244.469 227.838C243.355 226.608 242.241 225.378 241.112 224.168C240.67 223.693 240.664 222.546 240.843 221.802C241.061 220.905 241.41 220.038 241.895 218.833C242.133 218.242 242.403 217.57 242.707 216.773C242.977 217.198 243.204 217.585 243.411 217.939C243.804 218.611 244.127 219.164 244.549 219.626C251.249 226.887 258.128 233.907 266.591 239.248C272.81 243.17 279.196 246.022 286.725 245.564C287.31 245.526 287.903 245.621 288.497 245.715C288.783 245.761 289.07 245.807 289.356 245.838C289.37 246.006 289.385 246.173 289.399 246.339L289.44 246.805C288.169 247.02 286.898 247.233 285.495 247.468L285.465 247.473C284.28 247.672 283.001 247.887 281.547 248.131C282.074 248.322 282.53 248.527 282.937 248.711C283.688 249.05 284.272 249.314 284.827 249.267C285.826 249.18 286.828 249.104 287.831 249.027C291.638 248.736 295.456 248.445 299.151 247.617C302.565 246.853 305.885 245.673 309.32 244.453C310.864 243.905 312.431 243.348 314.04 242.817C313.898 243.059 313.784 243.28 313.682 243.478C313.493 243.847 313.343 244.139 313.117 244.35C305.695 251.364 297.881 257.864 287.783 260.633C272.922 264.711 261.414 258.127 254.322 245.183C254.219 244.997 254.155 244.786 254.065 244.491C254.017 244.334 253.962 244.154 253.891 243.942L253.896 243.936Z" fill="#D5781B"/>
<path d="M1.43109 222.009C16.2978 211.94 26.5298 198.818 28.8584 179.816H28.8528C28.4851 179.918 28.2053 179.988 27.9817 180.044L27.9807 180.045L27.9794 180.045C27.629 180.133 27.4163 180.186 27.2183 180.275C26.005 180.819 24.7914 181.363 23.5778 181.906L23.5004 181.941C16.4315 185.108 9.3624 188.275 2.33787 191.535C1.69417 191.837 1.12883 193.034 1.11764 193.823C1.0659 196.992 1.10472 200.165 1.14354 203.339C1.15932 204.628 1.1751 205.918 1.18481 207.208C1.19212 208.688 1.18988 210.165 1.18745 211.77C1.18615 212.622 1.18481 213.509 1.18481 214.452C10.008 209.241 15.4361 201.479 20.8159 193.787L20.8163 193.786C22.5045 191.372 24.188 188.965 25.9701 186.646C23.065 193.644 20.0928 200.602 14.8537 206.19C12.8887 208.285 10.8135 210.274 8.73757 212.263L8.73703 212.264C7.18821 213.748 5.63894 215.232 4.13464 216.762C3.19923 217.716 2.39461 218.796 1.58991 219.875C1.22935 220.359 0.868692 220.843 0.496327 221.315C0.809781 221.55 1.11764 221.78 1.43109 222.009Z" fill="#D5781B"/>
<path d="M450.438 213.501L450.436 213.5C450.322 212.809 450.192 212.173 450.07 211.574C449.818 210.339 449.598 209.262 449.621 208.187C449.678 205.578 449.81 202.97 449.942 200.362V200.348C450.053 198.142 450.164 195.935 450.231 193.727C450.253 193.079 449.783 192.055 449.257 191.803C441.622 188.134 433.942 184.559 426.257 180.996C425.71 180.74 425.114 180.589 424.514 180.436C424.236 180.366 423.957 180.295 423.682 180.213C420.783 192.189 438.135 216.309 450.522 221.477C449.453 219.716 448.283 217.981 446.76 216.645C440.402 211.057 435.308 204.439 430.83 197.324C430.114 196.186 429.558 194.949 429.003 193.712C428.742 193.132 428.482 192.552 428.205 191.982C428.322 191.912 428.439 191.842 428.555 191.772C428.671 191.703 428.787 191.633 428.905 191.563C429.057 191.751 429.211 191.938 429.364 192.126C429.759 192.607 430.153 193.089 430.528 193.588C431.343 194.675 432.138 195.779 432.934 196.884C434.697 199.33 436.461 201.776 438.431 204.042C438.572 204.204 438.714 204.367 438.855 204.53C441.912 208.055 445.049 211.672 450.436 213.5L450.438 213.512V213.501Z" fill="#D5781B"/>
<path d="M1.03929 259.643V267.916C2.20252 267.135 3.31099 266.395 4.37993 265.681L4.44041 265.64C6.94838 263.965 9.23974 262.434 11.512 260.873C23.6304 252.55 33.8289 242.392 41.2062 229.594C44.0156 224.717 43.9447 224.628 40.4583 220.249L40.3722 220.141C40.0839 219.781 39.8182 219.406 39.5046 218.963C39.3251 218.71 39.1299 218.434 38.9057 218.127C30.0282 235.618 17.3669 249.323 1.03929 259.643Z" fill="#D5781B"/>
<path d="M411.922 219.413C413.168 221.198 414.383 222.981 415.59 224.752L415.59 224.753C418.245 228.649 420.862 232.488 423.682 236.172C430.629 245.239 438.493 253.378 448.669 258.96C449.167 259.235 449.62 260.046 449.654 260.633C449.741 262.052 449.728 263.473 449.712 265.158V265.162C449.706 265.874 449.699 266.632 449.699 267.457C448.213 266.51 446.768 265.621 445.361 264.755L445.359 264.754C442.43 262.953 439.669 261.254 437.06 259.346C425.473 250.866 416.327 240.239 409.375 227.653C408.121 225.382 408.25 223.737 409.834 221.936C410.385 221.31 410.908 220.659 411.373 220.08C411.565 219.842 411.746 219.615 411.916 219.408L411.922 219.413Z" fill="#D5781B"/>
<path d="M0.731353 243.884L0.731428 243.886H0.725831L0.731353 243.884Z" fill="#D5781B"/>
<path d="M26.6082 207.935C27.0223 220.58 9.92361 241.399 0.731353 243.884C0.541471 240.087 1.89611 238.124 5.103 235.903C14.2547 229.577 21.1116 220.98 25.5951 210.665C25.8144 210.162 25.998 209.644 26.2305 208.988L26.2307 208.988C26.3422 208.673 26.4649 208.327 26.6082 207.935Z" fill="#D5781B"/>
<path d="M449.257 244.249C437.34 235.322 427.5 225.057 425.009 209.653C425.969 211.189 426.882 212.76 427.793 214.328C429.852 217.87 431.904 221.4 434.48 224.498C438.526 229.365 443.419 233.582 448.255 237.721C450.154 239.346 449.84 240.953 449.506 242.661C449.404 243.182 449.3 243.712 449.257 244.255V244.249Z" fill="#D5781B"/>
<path d="M9.55292 242.403C18.6319 234.382 25.8917 225.13 31.3884 213.993C31.9649 221.298 16.7344 240.826 9.55292 242.403Z" fill="#D5781B"/>
<path d="M441.784 242.683C432.632 239.014 421.634 225.32 420.716 216.449C425.675 226.864 432.778 235.534 441.784 242.683Z" fill="#D5781B"/>
<path d="M271.024 150.248C272.085 150.623 273.146 150.999 274.204 151.384V151.389L274.909 150.215C273.959 149.652 273.013 149.083 272.067 148.514L272.067 148.514C269.345 146.877 266.624 145.241 263.82 143.759C263.289 143.48 262.501 143.692 261.712 143.905C261.347 144.003 260.981 144.101 260.641 144.151C260.836 144.465 261.009 144.832 261.181 145.2C261.551 145.991 261.922 146.781 262.522 147.037C265.306 148.225 268.165 149.236 271.024 150.248Z" fill="#D5781B"/>
<path d="M16.7008 148.262C13.9497 146.461 11.1972 144.66 8.44464 142.859L8.44149 142.857C5.69002 141.056 2.93855 139.256 0.188477 137.455C0.24505 137.367 0.301624 137.279 0.358322 137.191C0.503488 136.964 0.649722 136.735 0.798593 136.51C3.58765 138.26 6.3753 140.01 9.16295 141.76L9.16455 141.761L9.24406 141.811C12.0072 143.546 14.7703 145.28 17.5348 147.015C17.3977 147.225 17.2591 147.433 17.1206 147.641C16.9821 147.85 16.8435 148.058 16.7064 148.268L16.7008 148.262Z" fill="#D5781B"/>
<path d="M1290.89 275.44C1268.79 271.27 1247.01 267.16 1224.56 262.93C1224.35 261.73 1223.99 259.67 1223.48 256.76C1228.59 256.99 1233.3 256.6 1237.74 257.5C1254 260.8 1270.14 264.66 1286.39 268.02C1291.8 269.14 1291.85 272.14 1290.9 275.44H1290.89Z" fill="white"/>
<path d="M556.748 255.78V262.56C534.848 266.96 513.248 271.3 491.388 275.7C490.388 271.84 491.088 269.27 496.248 268.21C513.648 264.61 530.948 260.55 548.308 256.75C550.868 256.19 553.538 256.14 556.748 255.78Z" fill="white"/>
<path d="M928.768 208.17C932.968 208.42 936.768 212.14 939.988 216.43C940.448 217.05 939.118 220.16 938.068 220.53C935.948 221.27 933.378 221.28 931.118 220.88C930.386 220.75 929.705 220.159 929.041 219.581C928.325 218.96 927.629 218.355 926.908 218.36C925.238 218.37 922.768 219.49 922.178 220.81C921.638 222.01 922.648 224.79 923.858 225.73C926.181 227.539 928.769 229.004 931.355 230.468C932.243 230.971 933.132 231.474 934.008 231.99C941.798 236.57 943.258 243.24 938.238 251.46C933.728 258.84 926.748 260.63 919.508 256.14C917.688 255.01 915.858 253.7 914.508 252.08C914.237 251.755 913.886 251.427 913.524 251.089C912.073 249.735 910.453 248.223 913.118 246.07C913.374 245.864 913.63 245.647 913.889 245.429C916.145 243.524 918.523 241.517 921.448 245.34C922.188 246.31 923.748 247.41 924.768 247.26C926.778 246.97 929.628 246.33 930.328 244.93C930.968 243.65 929.788 240.48 928.418 239.39C926.727 238.044 924.8 237.004 922.87 235.961C921.285 235.105 919.699 234.248 918.238 233.22C911.898 228.76 910.268 224.58 912.108 218.91C913.928 213.32 921.088 208.19 928.768 208.18V208.17Z" fill="white"/>
<path fill-rule="evenodd" clip-rule="evenodd" d="M814.458 258.25L814.461 258.24C815.341 258.24 816.144 258.227 816.895 258.215C818.445 258.19 819.774 258.169 821.098 258.27C823.928 258.48 825.058 257.17 824.948 254.48C824.748 249.48 827.188 247.66 832.038 248.35C833.465 248.551 834.931 248.498 836.351 248.446C836.982 248.423 837.603 248.4 838.208 248.4C839.995 255.607 843.892 258.367 849.898 256.68C846.797 245.817 843.701 234.948 840.6 224.062C839.211 219.185 837.82 214.305 836.428 209.42C836.008 209.42 835.617 209.437 835.246 209.453C834.512 209.485 833.859 209.513 833.228 209.4C828.648 208.58 826.718 210.6 826.158 215.08C825.742 218.413 824.822 221.692 823.908 224.95L823.907 224.952L823.907 224.954C823.79 225.37 823.674 225.785 823.558 226.2C821.453 233.778 819.29 241.34 817.067 249.115C816.208 252.12 815.339 255.158 814.461 258.24H814.448L814.458 258.25ZM832.363 226.98C832.522 226.968 832.682 226.956 832.839 226.941C833.471 229.281 834.1 231.618 834.75 234.035C835.2 235.706 835.66 237.415 836.138 239.19H828.288C829.036 236.666 829.749 234.245 830.45 231.865C830.929 230.237 831.403 228.629 831.878 227.02C832.038 227.005 832.201 226.993 832.363 226.98Z" fill="white"/>
<path d="M774.428 259.97H782.518V235.64C787.158 241.21 791.098 247.08 794.258 253.34C796.558 257.88 799.518 259.65 804.128 258.43V211.59H795.858V235.37C793.918 234.19 792.968 232.72 792.088 231.2C791.336 229.897 790.576 228.597 789.816 227.298L789.815 227.297L789.815 227.296L789.81 227.289L789.81 227.287L789.808 227.285L789.806 227.281C787.631 223.562 785.457 219.845 783.458 216.04C781.338 212 778.148 211.23 774.428 211.76V259.97Z" fill="white"/>
<path fill-rule="evenodd" clip-rule="evenodd" d="M681.441 268.929C682.326 268.825 683.262 268.716 684.268 268.64H684.258C682.369 265.192 680.61 261.989 678.922 258.914L678.919 258.908C677.445 256.224 676.025 253.637 674.618 251.07C682.868 244.88 684.578 234.4 678.948 226.93C676.048 223.09 672.298 221.08 667.288 221.88C663.9 222.424 660.493 222.88 657.005 223.347C655.489 223.55 653.959 223.755 652.408 223.97V271.15C655.738 270.91 658.698 270.7 662.108 270.46C661.955 267.643 661.807 264.905 661.65 261.992L661.635 261.712C661.488 258.999 661.333 256.129 661.158 252.9C662.12 253.605 663.009 254.18 663.809 254.698C665.349 255.693 666.562 256.478 667.338 257.57C668.339 258.977 669.099 260.553 669.859 262.131C670.543 263.549 671.227 264.969 672.088 266.27C672.968 267.59 674.708 268.89 676.218 269.11C677.841 269.35 679.52 269.153 681.441 268.929ZM661.558 245.61V231.43C662.566 231.531 663.619 231.549 664.667 231.567C667.134 231.609 669.569 231.65 671.288 232.78C672.698 233.71 672.968 239.27 671.578 240.87C670.185 242.476 667.876 243.286 665.266 244.203C664.074 244.621 662.818 245.061 661.558 245.61Z" fill="white"/>
<path fill-rule="evenodd" clip-rule="evenodd" d="M1078.94 217.269C1082.89 217.246 1086.62 217.224 1090.35 217.32C1095.87 217.47 1099.41 220.92 1101.17 225.62C1104.11 233.46 1104.96 240.89 1096.07 247.07C1097.06 249.104 1098.07 251.176 1099.08 253.254C1099.43 253.976 1099.78 254.698 1100.13 255.42C1100.93 257.077 1101.74 258.73 1102.56 260.406L1102.64 260.566C1103.1 261.508 1103.56 262.458 1104.03 263.42C1094.92 265.57 1094.51 265.29 1090.88 257.45C1090.59 256.837 1090.33 256.192 1090.07 255.543C1088.68 252.091 1087.24 248.518 1081.73 249.04V262.96H1073.41V217.29C1075.31 217.29 1077.15 217.279 1078.94 217.269ZM1082.16 226.5V239C1084.67 238.746 1087.03 238.501 1089.3 238.266L1089.36 238.26C1090.37 238.155 1091.37 238.051 1092.35 237.95C1093.73 227.69 1092.4 226.21 1082.16 226.5Z" fill="white"/>
<path fill-rule="evenodd" clip-rule="evenodd" d="M731.102 234.699L731.102 234.712C731.105 235.704 731.108 236.697 731.108 237.69H731.018C731.018 238.475 731.053 239.266 731.088 240.057C731.163 241.775 731.239 243.493 730.958 245.15C729.588 253.15 740.288 262.43 745.978 262.21C754.438 261.88 761.618 254.57 761.618 245.4C761.618 239.43 761.368 233.45 760.948 227.49C760.358 219.16 753.258 211.98 746.058 212.13C738.818 212.28 731.218 220.7 731.108 228.73C731.088 230.716 731.095 232.707 731.102 234.699ZM740.056 239.39C739.962 238.175 739.867 236.967 739.768 235.77C739.768 234.907 739.78 234.054 739.791 233.209C739.817 231.334 739.842 229.497 739.738 227.67C739.548 224.46 740.758 222.57 744.098 222.32C747.408 222.07 750.988 222.01 751.278 226.36C751.738 233.31 751.758 240.31 751.708 247.28C751.688 250.29 749.698 251.6 746.668 251.43L746.409 251.416C743.745 251.275 741.117 251.135 740.758 247.59C740.482 244.849 740.268 242.103 740.056 239.391L740.056 239.39Z" fill="white"/>
<path d="M1039.95 212.5H1030.74C1030.74 216.14 1030.72 219.745 1030.7 223.327C1030.65 231.711 1030.61 239.963 1030.82 248.21C1031.01 255.64 1039.26 262.16 1047.11 261.75C1053.78 261.4 1059.77 254.75 1059.82 247.6C1059.84 243.61 1059.86 239.619 1059.88 235.627V235.598C1059.91 230.285 1059.94 224.971 1059.98 219.66C1060.03 213.11 1059.81 212.92 1052.34 213.96C1052.3 214.444 1052.26 214.935 1052.22 215.432L1052.22 215.437C1052.13 216.674 1052.02 217.944 1051.99 219.22C1051.9 222.254 1051.83 225.288 1051.77 228.322L1051.77 228.357L1051.77 228.36C1051.64 234.292 1051.51 240.223 1051.22 246.15C1050.98 251.07 1049.19 252.07 1044.36 251.24C1040.32 250.54 1040.02 247.48 1039.99 244.48C1039.91 236.867 1039.92 229.26 1039.94 221.568C1039.94 218.56 1039.95 215.539 1039.95 212.5Z" fill="white"/>
<path d="M692.317 253.662C691.437 254.126 690.514 254.612 689.528 255.06C690.544 255.939 691.491 256.774 692.397 257.574L692.401 257.577L692.402 257.578C694.205 259.17 695.849 260.62 697.558 261.99C704.358 267.44 712.188 265.93 717.638 258.19C723.298 250.14 722.068 244.05 713.908 239.03C710.098 236.69 706.278 234.33 702.728 231.63C699.818 229.43 700.968 227.37 703.748 225.92C707.758 223.83 710.228 225.96 712.048 229.35C712.545 229.196 713.006 229.063 713.44 228.937C714.246 228.704 714.963 228.496 715.658 228.23C720.788 226.23 721.108 224.92 717.468 220.9C710.078 212.73 699.688 214.34 693.618 224.59C690.688 229.54 690.988 234.89 695.328 238.61C698.808 241.59 702.908 243.97 707.028 246.01L707.09 246.041C709.915 247.438 712.396 248.665 710.748 252.13C709.108 255.57 705.218 255.93 703.098 253.87C699.178 250.048 696.151 251.642 692.317 253.662Z" fill="white"/>
<path d="M953.098 210.81H976.728V220.33H962.088V229.52C963.305 230.367 965.181 230.284 967.035 230.202C970.609 230.044 974.103 229.889 972.648 236.4C971.813 240.13 969.631 239.61 967.187 239.027C965.418 238.605 963.512 238.15 961.878 239.25L961.957 240.502L961.957 240.504C962.086 242.565 962.245 245.11 962.418 247.96H977.468C977.599 250.506 977.714 252.825 977.833 255.212L977.968 257.94H953.098V210.81Z" fill="white"/>
<path d="M1010.16 243.477L1010.14 243.47L1010.15 243.49C1010.22 243.783 1010.29 244.074 1010.36 244.364C1010.46 244.747 1010.55 245.129 1010.65 245.51C1009.95 245.99 1009.25 246.598 1008.55 247.207C1007 248.552 1005.45 249.895 1003.95 249.84C999.748 249.69 997.418 246.69 997.648 241.97C997.788 239.105 997.734 236.228 997.68 233.35V233.349C997.638 231.074 997.595 228.799 997.648 226.53C997.748 222.15 1001.58 219.5 1005.49 221.23C1006.23 221.555 1006.81 222.27 1007.39 222.976C1008 223.727 1008.61 224.468 1009.39 224.72C1011.98 225.566 1014.83 225.659 1017.58 225.749L1017.62 225.75C1017.92 225.76 1018.81 223.5 1018.54 222.54C1016.82 216.31 1007.52 209.95 1001.65 210.74C994.828 211.66 987.848 219.71 987.838 226.83C987.828 232.47 987.848 238.12 988.048 243.76C988.278 250.13 994.098 257.6 1000.63 259.77C1006.65 261.77 1011.5 259.35 1014.98 254.59C1016.23 252.877 1016.98 250.792 1017.73 248.707L1017.73 248.706C1018.06 247.773 1018.4 246.839 1018.78 245.94C1015.91 245.112 1013.04 244.295 1010.16 243.477Z" fill="white"/>
<path d="M638.928 225.99V235.11C636.884 235.328 634.853 235.547 632.787 235.769C630.689 235.994 628.556 236.223 626.338 236.46V244.54C627.384 245.605 629.104 245.28 630.814 244.957C633.585 244.434 636.33 243.916 636.138 249.32C635.975 253.998 633.432 253.737 630.788 253.466C629.069 253.29 627.306 253.11 626.128 254.28V262.23H640.708C640.799 263.829 640.885 265.359 640.972 266.912C641.057 268.439 641.144 269.989 641.238 271.65C636.275 271.931 631.457 272.206 626.617 272.481L626.511 272.487C623.126 272.68 619.731 272.873 616.268 273.07V228.09L616.278 228.08C622.765 227.48 629.191 226.888 635.892 226.27L638.928 225.99Z" fill="white"/>
<path fill-rule="evenodd" clip-rule="evenodd" d="M581.858 232.914C580.45 233.145 579.026 233.378 577.578 233.61V275.44H587.208C586.888 271.12 586.568 266.92 586.208 262.2C586.847 262.2 587.435 262.212 587.989 262.224C589.098 262.247 590.068 262.267 591.028 262.18C602.828 261.11 609.768 248.44 604.308 238C601.918 233.42 596.948 230.65 592.028 231.33C588.668 231.799 585.312 232.349 581.858 232.914ZM586.65 242.962C586.654 242.128 586.658 241.231 586.658 240.24C587.785 240.574 589.068 240.399 590.329 240.226C592.951 239.867 595.475 239.522 596.278 243.81C597.568 250.7 595.868 252.38 586.938 253.86C586.907 253.121 586.871 252.388 586.836 251.659C586.768 250.276 586.701 248.905 586.668 247.53C586.635 246.095 586.642 244.659 586.65 242.962Z" fill="white"/>
<path d="M1183.21 272.93C1186.26 260.708 1181.68 250.349 1177.09 239.942C1175.32 235.941 1173.55 231.933 1172.21 227.81C1179.14 225.85 1180.83 226.64 1183.44 233.13C1184.61 236.027 1185.75 238.928 1187.1 242.325C1187.66 243.759 1188.27 245.282 1188.92 246.93C1189.68 245.214 1190.39 243.645 1191.06 242.169L1191.06 242.168C1192.49 239.026 1193.72 236.313 1194.77 233.53C1196.24 229.63 1198.2 227.67 1202.46 229.95C1203.11 230.298 1203.9 230.371 1204.68 230.443C1205.04 230.476 1205.4 230.51 1205.74 230.57C1204.7 232.638 1203.59 234.669 1202.48 236.692L1202.48 236.695L1202.48 236.698C1199.98 241.277 1197.49 245.817 1195.92 250.65C1194.37 255.405 1193.74 260.454 1193.08 265.705L1193.08 265.707L1193.08 265.708L1193.08 265.709C1192.78 268.078 1192.47 270.487 1192.08 272.93H1183.21Z" fill="white"/>
<path d="M1163.3 235.28V225.66L1163.31 225.65C1157.98 224.93 1152.88 224.236 1147.78 223.542C1143.95 223.022 1140.12 222.501 1136.2 221.97C1135.98 225.66 1135.8 228.71 1135.61 231.96C1137.92 232.233 1139.95 232.476 1141.99 232.721L1142 232.723C1142.87 232.827 1143.75 232.932 1144.65 233.04V269.48C1146.01 269.545 1147.31 269.606 1148.6 269.667L1148.61 269.667C1150.48 269.756 1152.3 269.841 1154.13 269.93V234.54C1155.47 234.649 1156.75 234.751 1157.98 234.85L1158 234.852L1158.03 234.854C1159.83 235 1161.55 235.138 1163.3 235.28Z" fill="white"/>
<path d="M868.338 247.81H883.808V257.07H860.198V208.59H868.338V247.81Z" fill="white"/>
<path d="M1124.7 265.15C1124.71 250.19 1124.71 235.22 1124.71 219.85C1123.42 219.588 1122.26 219.349 1121.15 219.121C1119.34 218.751 1117.7 218.413 1115.95 218.06V265.99C1117.13 266.073 1118.23 266.15 1119.29 266.223C1121.06 266.347 1122.7 266.461 1124.38 266.58C1124.41 266.431 1124.46 266.282 1124.5 266.132C1124.6 265.807 1124.7 265.478 1124.7 265.15Z" fill="white"/>
<path d="M1198.36 210.953C1192.95 209.48 1187.35 207.955 1181.62 206.39C1187.4 197.005 1186.59 186.998 1185.78 177.018C1185.47 173.196 1185.16 169.378 1185.22 165.6C1185.66 137.95 1185.8 110.295 1185.93 82.6393V82.6262C1186.01 66.1778 1186.09 49.7289 1186.24 33.28C1186.3 26.13 1184.7 19.82 1179.65 14.07C1187.07 13.5604 1194.32 13.0653 1201.96 12.5441L1202.2 12.5272C1205.42 12.3072 1208.72 12.0825 1212.12 11.85C1215.2 26.9161 1218.3 42.0382 1221.41 57.258C1226.31 81.1734 1231.25 105.33 1236.28 129.89C1242.1 115.63 1264.28 12.29 1263.1 6.37C1272.76 4.29 1282.41 2.21 1292.66 0C1292.43 1.11357 1292.16 2.21651 1291.9 3.31391L1291.9 3.31542L1291.9 3.31681L1291.9 3.31813L1291.89 3.32379C1291.31 5.75081 1290.73 8.15151 1290.56 10.58C1290.04 18.04 1289.76 25.53 1289.75 33.01L1289.73 43.8799V43.9094C1289.64 101.697 1289.54 159.493 1289.73 217.28C1289.74 222.391 1290.62 227.498 1291.5 232.571L1291.5 232.573L1291.5 232.575L1291.5 232.576L1291.5 232.58C1291.91 234.928 1292.31 237.269 1292.63 239.6C1282.33 236.15 1271.04 232.37 1259.09 228.37C1264.99 222.739 1264.82 215.825 1264.65 208.963C1264.62 207.563 1264.58 206.165 1264.6 204.78C1264.86 182.795 1265.02 160.805 1265.19 138.817L1265.19 138.719C1265.25 130.946 1265.31 123.173 1265.37 115.4C1265.37 114.59 1265.37 113.77 1264.6 112.82C1260.26 130.8 1255.93 148.777 1251.6 166.755C1247.27 184.732 1242.93 202.71 1238.6 220.69L1236.06 220.84C1235.17 217.832 1234.23 214.836 1233.29 211.84L1233.29 211.838C1231.24 205.323 1229.19 198.807 1227.73 192.17C1223.76 174.229 1220.05 156.23 1216.35 138.233L1216.34 138.214L1216.33 138.156L1216.32 138.091C1214.7 130.265 1213.09 122.44 1211.46 114.62C1211.4 114.34 1211.11 114.11 1209.78 113.85C1209.78 116.21 1209.78 118.569 1209.78 120.929C1209.79 125.65 1209.79 130.373 1209.78 135.1C1209.76 140.766 1209.72 146.432 1209.68 152.098C1209.58 165.241 1209.49 178.383 1209.68 191.52C1209.75 196.794 1210.42 202.059 1211.09 207.369L1211.09 207.372L1211.09 207.375L1211.09 207.379C1211.4 209.788 1211.71 212.207 1211.96 214.64V214.66C1207.74 213.509 1203.36 212.316 1198.85 211.088L1198.36 210.953Z" fill="white"/>
<path d="M543.577 75.798L543.577 75.7873C544.045 64.1175 544.507 52.5787 544.838 41.04C544.868 39.94 543.728 37.97 542.858 37.8C536.833 36.604 530.767 35.5914 524.423 34.5322C522.387 34.1922 520.32 33.8472 518.218 33.49C518.12 34.3109 518.007 35.0833 517.899 35.8231C517.679 37.3363 517.478 38.7131 517.458 40.09C517.442 41.3588 517.426 42.6277 517.409 43.8966C517.223 58.2777 517.037 72.6589 517.138 87.04C517.158 89.06 518.608 91.87 520.278 92.96C529.163 98.7359 538.189 104.295 547.212 109.852C549.655 111.357 552.098 112.861 554.538 114.37C556.798 115.77 559.088 117.14 561.418 118.43C566.598 121.32 568.638 125.58 568.518 131.6C568.291 142.297 568.202 152.997 568.112 163.699V163.7C568.036 172.806 567.959 181.913 567.798 191.02C567.718 195.81 567.458 200.76 566.138 205.31C563.828 213.3 558.308 218.67 550.258 221.26C545.43 222.811 540.606 224.379 535.783 225.946L535.77 225.95C527.323 228.695 518.875 231.44 510.398 234.1C502.078 236.71 491.658 229.71 491.428 220.92C491.076 207.626 491.13 194.317 491.184 181.006C491.192 178.827 491.201 176.649 491.208 174.47C491.208 173.24 492.018 171.39 492.988 170.9C499.082 167.823 505.248 164.893 511.383 161.978L511.387 161.976L511.407 161.966L511.415 161.962L511.424 161.958C513.45 160.995 515.473 160.034 517.488 159.07V202.3C519.475 201.684 521.472 201.074 523.473 200.462L523.475 200.462C529.563 198.602 535.7 196.727 541.758 194.62C542.908 194.22 544.018 191.85 544.038 190.37C544.238 174.89 544.338 159.4 544.058 143.93C544.028 142.06 541.888 139.6 540.068 138.48C532.615 133.898 525.049 129.492 517.484 125.087L517.483 125.087L517.481 125.086C514.695 123.464 511.909 121.841 509.128 120.21C508.483 119.83 507.851 119.43 507.218 119.03C506.586 118.63 505.953 118.23 505.308 117.85C495.258 111.95 490.698 103.87 491.218 91.55C491.95 74.1491 491.862 56.716 491.775 39.2821C491.742 32.901 491.71 26.5198 491.718 20.14C491.718 13.72 492.658 7.99998 498.818 4.17998C503.048 1.54998 507.118 0.719975 512.048 1.73998C524.258 4.25998 536.538 6.44997 548.828 8.54997C557.928 10.1 566.928 18.68 567.468 28.15C568.23 41.3977 568.35 54.6947 568.471 67.9739C568.483 69.3395 568.495 70.7048 568.508 72.07C568.518 73.3 566.878 75.21 565.588 75.67C560.05 77.6489 554.447 79.4425 549.007 81.1835C547.08 81.8002 545.174 82.4105 543.298 83.02L543.288 83.03C543.384 80.613 543.48 78.2027 543.577 75.798Z" fill="white"/>
<path d="M891.608 178.966H891.622C893.381 178.958 895.107 178.95 896.788 178.95L896.808 178.96C896.531 176.365 896.216 173.959 895.918 171.68L895.918 171.679L895.917 171.675L895.917 171.673L895.917 171.672L895.916 171.668L895.916 171.666C895.31 167.038 894.772 162.931 894.758 158.82C894.686 134.148 894.739 109.48 894.793 84.8114V84.8009L894.793 84.7358C894.821 71.9945 894.848 59.2528 894.858 46.51C894.858 45.4239 894.842 44.3353 894.826 43.2475C894.715 35.6918 894.605 28.1687 899.858 21.7C899.956 21.5813 899.888 21.3261 899.825 21.0876C899.797 20.9845 899.77 20.8845 899.758 20.8H868.438C868.283 20.945 868.131 21.09 867.978 21.235L867.973 21.2403C867.822 21.3835 867.671 21.5268 867.518 21.67C873.872 26.2737 873.638 32.4647 873.405 38.6373C873.364 39.7318 873.323 40.8257 873.318 41.91C873.282 51.1929 873.214 60.4794 873.146 69.7652V69.7932C873.1 75.9729 873.054 82.1522 873.018 88.33C872.998 92.0167 873.005 95.7034 873.012 99.39C873.015 101.233 873.018 103.077 873.018 104.92C870.518 99.48 868.688 94.0201 867.078 88.4901C860.938 67.4301 854.828 46.36 848.838 25.26C847.878 21.91 846.788 20.5201 842.728 20.9301C837.998 21.4003 833.204 21.2794 828.411 21.1586C826.375 21.1073 824.339 21.056 822.308 21.05H817.638C817.444 21.224 817.253 21.4005 817.062 21.577L817.058 21.58C816.866 21.7575 816.673 21.935 816.478 22.11C824.652 26.5417 824.455 33.5075 824.258 40.4582V40.4647C824.23 41.4795 824.201 42.4939 824.198 43.5C824.166 58.1504 824.128 72.7992 824.09 87.4476V87.4819C824.032 109.427 823.974 131.372 823.938 153.32C823.937 154.213 823.945 155.108 823.952 156.002C824.019 164.066 824.085 172.104 818.008 179H847.708C845.319 161.061 845.84 143.323 846.36 125.653C846.636 116.256 846.912 106.878 846.748 97.5C847.798 98.64 848.338 99.81 848.708 101.04C850.629 107.497 852.546 113.954 854.463 120.412C859.92 138.799 865.378 157.186 870.928 175.54C871.328 176.89 873.088 178.75 874.278 178.8C880.161 179.02 886.05 178.993 891.608 178.966Z" fill="white"/>
<path d="M955.868 154.12V124.25C953.562 124.053 950.95 123.824 948.15 123.579L948.144 123.578L945.878 123.38V99.7401H978.608C978.633 100.261 978.666 100.758 978.698 101.24L978.698 101.242L978.698 101.243V101.245C978.755 102.11 978.808 102.925 978.808 103.74C978.808 109.094 978.813 114.45 978.817 119.805V119.809C978.829 134.096 978.841 148.386 978.768 162.67C978.728 170.75 970.668 178.56 962.628 178.42C951.978 178.23 941.328 177.95 930.678 177.57C921.248 177.24 910.998 166.63 910.978 157.14C910.908 117.52 910.888 77.91 910.888 38.2901C910.888 29.7601 920.088 20.55 929.078 20.38C939.398 20.19 949.718 20.22 960.038 20.47C970.128 20.72 978.818 29.9 978.828 39.91C978.842 47.0888 978.837 54.2676 978.833 61.4376V61.4945C978.831 65.0723 978.828 68.6478 978.828 72.22C974.907 72.5752 971.138 72.9178 967.397 73.2579C963.658 73.5978 959.947 73.9352 956.138 74.28V43.87H934.098C934.098 45.8825 934.099 47.8712 934.101 49.8443V49.9101C934.103 53.787 934.105 57.6036 934.098 61.4201C934.083 68.5779 934.076 75.7363 934.068 82.895C934.046 104.37 934.023 125.848 933.798 147.32C933.748 152.08 935.408 154.06 939.858 154.11C943.354 154.144 946.844 154.136 950.548 154.128H950.572C952.275 154.124 954.024 154.12 955.838 154.12H955.868Z" fill="white"/>
<path d="M614.635 205.491L614.712 205.476C619.478 204.543 624.264 203.606 629.188 202.64L629.198 202.65C629.173 202.396 629.175 202.125 629.176 201.857C629.179 201.272 629.183 200.697 628.908 200.32C624.463 194.199 624.502 187.264 624.542 180.211C624.544 179.728 624.547 179.244 624.548 178.76C624.617 146.557 624.593 114.36 624.568 82.1595V82.1499C624.561 72.087 624.553 62.0238 624.548 51.96V42.79C631.03 41.1878 635.682 44.1727 640.433 47.2217C642.176 48.3403 643.933 49.4675 645.798 50.38V19.34C621.958 16.7 598.578 14.11 574.938 11.49C578.432 18.9868 578.309 26.8473 578.181 35.0155C578.114 39.3337 578.045 43.7381 578.508 48.22C579.421 47.4085 580.235 46.5652 581.004 45.7672C582.597 44.1166 584.003 42.6597 585.708 42.08C589.938 40.64 594.588 40.04 599.048 40.11C599.758 40.13 600.948 45.48 600.968 48.37C601.138 70.6656 601.253 92.9637 601.368 115.263V115.269C601.483 137.565 601.598 159.863 601.768 182.16C601.775 182.996 601.787 183.833 601.799 184.668C601.921 193.126 602.043 201.521 596.118 209.12C602.432 207.881 608.519 206.689 614.635 205.491Z" fill="white"/>
<path fill-rule="evenodd" clip-rule="evenodd" d="M1154.38 129.08C1165.94 125.36 1169.7 120.08 1169.68 108.41C1169.66 91.94 1169.67 75.46 1169.7 58.99C1169.7 56.3564 1169.78 53.7183 1169.85 51.0802C1169.99 45.8949 1170.14 40.7099 1169.78 35.56C1168.99 24.33 1158.74 16.96 1147.63 18.66C1142.06 19.51 1136.41 20.22 1130.78 20.34C1122.25 20.519 1113.72 20.4827 1105.49 20.4476C1102.23 20.4337 1099.02 20.42 1095.87 20.42C1096.36 22.1849 1096.98 23.9306 1097.6 25.6648C1098.91 29.3841 1100.21 33.0504 1100.25 36.74C1100.69 75.51 1100.87 114.28 1100.5 153.05C1100.47 156.11 1100.66 159.205 1100.85 162.308C1101.45 172.065 1102.05 181.913 1095.88 191.07C1103.41 192.51 1110.62 193.892 1118.12 195.33L1118.18 195.341L1118.22 195.348C1121.88 196.051 1125.62 196.767 1129.5 197.51C1123.95 189.05 1123.5 180.57 1123.76 171.87C1123.98 164.414 1124.01 156.953 1124.05 149.49V149.481C1124.07 146.628 1124.08 143.773 1124.11 140.92C1124.13 138.648 1124.12 136.375 1124.11 134.045V133.989C1124.11 132.82 1124.11 131.636 1124.11 130.43H1132.43C1135.87 145.777 1139.3 161.083 1142.78 176.6L1143.24 178.67C1144.79 185.586 1146.35 192.545 1147.93 199.57C1156.85 201.54 1166.63 203.7 1176.88 205.97C1169.28 189.657 1165.25 172.678 1161.24 155.729C1159.12 146.808 1157.01 137.894 1154.38 129.09V129.08ZM1140.87 106.02C1137.19 106.076 1133.52 106.064 1129.74 106.051H1129.74C1128.09 106.046 1126.42 106.04 1124.73 106.04V45.36H1145.53C1145.54 45.3922 1145.55 45.4327 1145.56 45.4807L1145.58 45.5287L1145.6 45.5993C1145.71 45.9512 1145.9 46.5426 1145.91 47.14C1145.99 52.5775 1146.05 58.016 1146.11 63.4546V63.456C1146.24 75.3203 1146.37 87.1849 1146.73 99.04C1146.87 103.72 1145.43 105.96 1140.87 106.03V106.02Z" fill="white"/>
<path fill-rule="evenodd" clip-rule="evenodd" d="M715.655 138.695C719.894 154.818 724.134 170.947 732.258 185.76L732.248 185.77C732.337 185.923 732.321 186.137 732.297 186.445C732.284 186.621 732.268 186.827 732.268 187.07C728.33 187.587 724.39 188.107 720.512 188.618L720.346 188.64C715.439 189.287 710.633 189.92 706.058 190.52C700.438 169.86 694.968 149.78 689.428 129.46C688.546 129.587 687.649 129.714 686.733 129.845L686.732 129.845C685.115 130.076 683.44 130.315 681.678 130.57C681.645 130.639 681.593 130.721 681.534 130.813C681.382 131.052 681.188 131.356 681.188 131.66C681.188 135.691 681.178 139.721 681.167 143.752C681.132 156.69 681.098 169.628 681.418 182.56C681.479 185.107 682.537 187.627 683.629 190.229C684.145 191.457 684.668 192.704 685.098 193.98C680.044 194.828 675.001 195.671 669.835 196.535C664.217 197.475 658.453 198.439 652.368 199.46C658.513 190.746 658.35 181.654 658.189 172.669C658.163 171.199 658.137 169.732 658.138 168.27C658.147 161.039 658.159 153.808 658.171 146.577C658.224 114.041 658.276 81.5105 658.088 48.98C658.075 46.7785 658.207 44.5484 658.339 42.3132C658.812 34.3147 659.289 26.2521 653.138 19.21C659.073 19.509 664.938 19.7931 670.751 20.0747C684.577 20.7445 698.118 21.4004 711.648 22.21C720.208 22.72 726.828 30.61 726.918 40.2C726.982 47.1168 726.951 54.0374 726.921 60.9581V60.9594C726.865 73.5094 726.809 86.0601 727.318 98.59C727.778 109.84 724.398 117.6 713.918 122.13C712.918 122.56 712.008 125.18 712.358 126.42C713.499 130.497 714.577 134.596 715.655 138.695ZM686.989 105.698C691.312 105.043 695.553 104.4 699.808 103.88C703.018 103.49 703.658 101.88 703.598 98.86C703.383 87.1298 703.295 75.3996 703.206 63.6693C703.175 59.5896 703.144 55.5098 703.108 51.4301C703.102 50.2685 703.104 49.1069 703.106 47.8774V47.8715C703.107 47.2294 703.108 46.5688 703.108 45.88C695.578 45.21 688.698 44.6 681.438 43.96V106.53C683.307 106.256 685.154 105.976 686.986 105.699L686.989 105.698Z" fill="white"/>
<path fill-rule="evenodd" clip-rule="evenodd" d="M790.538 20.64C780.228 20.62 769.918 20.53 759.618 20.14C751.168 19.82 741.118 29.0001 741.118 37.4901V103.37H740.858C740.858 109.453 740.86 115.536 740.861 121.62V121.622C740.866 136.831 740.87 152.043 740.848 167.25C740.838 176.66 749.298 185.02 758.748 184.36C768.688 183.66 778.618 182.61 788.528 181.53C800.008 180.29 808.008 171.21 808.078 159.7C808.318 119.271 808.578 78.8412 808.838 38.4118V38.41C808.898 28.93 800.268 20.65 790.548 20.63L790.538 20.64ZM769.913 159.219L769.912 159.219L769.91 159.219C768.211 159.367 766.481 159.518 764.708 159.66V44.3601H786.028V55.9201C786.028 64.827 786.022 73.734 786.016 82.6408C786 106.023 785.984 129.404 786.078 152.78C786.088 156.63 784.778 158.2 781.028 158.39H781.018C777.363 158.57 773.714 158.888 769.913 159.219Z" fill="white"/>
<path d="M1091.76 191.338C1091.76 191.339 1091.76 191.339 1091.76 191.34H1091.77C1091.76 191.339 1091.76 191.339 1091.76 191.338Z" fill="white"/>
<path fill-rule="evenodd" clip-rule="evenodd" d="M1081.38 134.589C1083.55 153.538 1085.72 172.594 1091.76 191.338C1087.6 190.65 1083.57 189.984 1079.58 189.323C1073.88 188.38 1068.23 187.445 1062.33 186.47C1066.28 179.033 1064.9 171.65 1063.5 164.117C1062.82 160.467 1062.13 156.783 1062.04 153.04C1053.73 152.23 1045.86 151.46 1037.22 150.61C1037.2 154.556 1036.36 158.419 1035.52 162.276C1033.98 169.346 1032.44 176.398 1035.97 183.91C1030.63 183.363 1025.42 182.832 1020.27 182.305C1015.24 181.792 1010.26 181.283 1005.25 180.77C1011.09 167.022 1013.65 152.318 1016.21 137.635C1016.77 134.419 1017.33 131.204 1017.93 128C1023.09 100.138 1027.53 72.1318 1031.98 44.132C1032.48 40.9379 1032.99 37.7438 1033.5 34.55C1033.92 31.8314 1033.6 28.9938 1033.26 26.0342C1033.1 24.6175 1032.94 23.1729 1032.85 21.7H1064.63C1065.93 30.2252 1067.22 38.7632 1068.5 47.3072C1071.45 66.9651 1074.41 86.6543 1077.67 106.29C1079.23 115.662 1080.3 125.112 1081.38 134.589ZM1041.52 126.16C1041.94 123.2 1042.34 120.277 1042.73 117.381C1043.62 110.948 1044.48 104.647 1045.45 98.36C1046.83 89.36 1048.43 80.39 1050.88 71.36L1051.01 72.2765C1053.53 90.3713 1056.06 108.484 1058.74 127.66C1052.75 127.14 1047.37 126.67 1041.52 126.16Z" fill="white"/>
</svg>
